<?xml version="1.0" encoding="UTF-8" standalone="no"?>
<!DOCTYPE svg PUBLIC "-//W3C//DTD SVG 20010904//EN"
              "http://www.w3.org/TR/2001/REC-SVG-20010904/DTD/svg10.dtd">

<svg xmlns="http://www.w3.org/2000/svg"
     width="135.486mm" height="134.162mm"
     viewBox="0 0 512 507">
  <path id="Selection"
        fill="black" stroke="black" stroke-width="1"
        d="M 128.00,380.00
           C 128.00,380.00 128.00,473.00 128.00,473.00
             128.01,476.53 127.81,479.73 129.45,483.00
             134.51,493.07 146.66,494.81 155.00,487.79
             155.00,487.79 183.00,460.00 183.00,460.00
             183.00,460.00 236.00,407.00 236.00,407.00
             236.00,407.00 253.00,390.00 253.00,390.00
             255.39,387.61 260.21,382.42 263.00,381.02
             265.43,379.81 268.35,380.01 271.00,380.00
             271.00,380.00 464.00,380.00 464.00,380.00
             490.07,379.96 511.69,360.55 512.00,334.00
             512.00,334.00 512.00,236.00 512.00,236.00
             512.00,236.00 512.00,60.00 512.00,60.00
             511.99,53.59 511.47,49.12 509.30,43.00
             502.91,24.96 485.14,12.09 466.00,12.00
             466.00,12.00 445.00,12.00 445.00,12.00
             445.00,12.00 405.00,12.00 405.00,12.00
             405.00,12.00 48.00,12.00 48.00,12.00
             20.61,12.04 0.04,32.61 0.00,60.00
             0.00,60.00 0.00,172.00 0.00,172.00
             0.00,172.00 0.00,332.00 0.00,332.00
             0.04,359.55 20.45,379.96 48.00,380.00
             48.00,380.00 128.00,380.00 128.00,380.00 Z
           M 160.00,437.00
           C 160.00,437.00 160.00,348.00 160.00,348.00
             160.00,348.00 53.00,348.00 53.00,348.00
             46.47,347.99 40.03,347.55 35.65,341.90
             32.13,337.36 32.01,332.43 32.00,327.00
             32.00,327.00 32.00,282.00 32.00,282.00
             32.00,282.00 32.00,65.00 32.00,65.00
             32.02,49.60 37.60,44.02 53.00,44.00
             53.00,44.00 131.00,44.00 131.00,44.00
             131.00,44.00 459.00,44.00 459.00,44.00
             465.53,44.01 471.97,44.45 476.35,50.10
             479.87,54.64 479.99,59.57 480.00,65.00
             480.00,65.00 480.00,110.00 480.00,110.00
             480.00,110.00 480.00,327.00 480.00,327.00
             479.99,332.77 479.78,338.25 475.61,342.79
             471.76,346.98 466.40,347.93 461.00,348.00
             461.00,348.00 428.00,348.00 428.00,348.00
             428.00,348.00 258.00,348.00 258.00,348.00
             255.91,348.00 252.94,347.88 251.00,348.60
             247.82,349.77 244.41,353.59 242.00,356.00
             242.00,356.00 227.00,371.00 227.00,371.00
             227.00,371.00 172.00,425.17 172.00,425.17
             172.00,425.17 160.00,437.00 160.00,437.00 Z
           M 91.00,92.65
           C 78.40,97.94 75.65,113.31 87.02,121.35
             91.07,124.22 94.32,123.99 99.00,124.00
             99.00,124.00 413.00,124.00 413.00,124.00
             416.53,123.99 419.73,124.19 423.00,122.55
             433.74,117.15 435.21,102.96 425.96,95.39
             421.60,91.83 418.27,92.01 413.00,92.00
             413.00,92.00 196.00,92.00 196.00,92.00
             196.00,92.00 127.00,92.00 127.00,92.00
             127.00,92.00 91.00,92.65 91.00,92.65 Z
           M 91.00,156.65
           C 78.40,161.94 75.65,177.31 87.02,185.35
             91.07,188.22 94.32,187.99 99.00,188.00
             99.00,188.00 413.00,188.00 413.00,188.00
             416.53,187.99 419.73,188.19 423.00,186.55
             433.74,181.15 435.21,166.96 425.96,159.39
             421.60,155.83 418.27,156.01 413.00,156.00
             413.00,156.00 196.00,156.00 196.00,156.00
             196.00,156.00 127.00,156.00 127.00,156.00
             127.00,156.00 91.00,156.65 91.00,156.65 Z
           M 91.00,220.65
           C 78.40,225.94 75.65,241.31 87.02,249.35
             91.07,252.22 94.32,251.99 99.00,252.00
             99.00,252.00 253.00,252.00 253.00,252.00
             258.27,251.99 261.60,252.17 265.96,248.61
             275.21,241.04 273.74,226.85 263.00,221.45
             259.73,219.81 256.53,220.01 253.00,220.00
             253.00,220.00 145.00,220.00 145.00,220.00
             145.00,220.00 111.00,220.00 111.00,220.00
             105.11,220.00 96.52,219.51 91.00,220.65 Z" />
</svg>
