<?xml version="1.0" encoding="UTF-8" standalone="no"?>
<!DOCTYPE svg PUBLIC "-//W3C//DTD SVG 20010904//EN"
              "http://www.w3.org/TR/2001/REC-SVG-20010904/DTD/svg10.dtd">

<svg xmlns="http://www.w3.org/2000/svg"
     width="380.952mm" height="380.952mm"
     viewBox="0 0 1080 1080">
  <path id="Selection"
        fill="white" stroke="white" stroke-width="1"
        d="M 480.00,68.00
           C 480.00,68.00 472.72,128.00 472.72,128.00
             472.72,128.00 468.00,166.00 468.00,166.00
             468.00,166.00 491.00,164.00 491.00,164.00
             491.00,164.00 492.00,145.00 492.00,145.00
             492.00,145.00 508.30,145.61 508.30,145.61
             508.30,145.61 514.51,160.99 514.51,160.99
             514.51,160.99 521.00,160.99 521.00,160.99
             521.00,160.99 536.00,160.00 536.00,160.00
             536.00,160.00 529.42,137.00 529.42,137.00
             529.42,137.00 514.67,90.00 514.67,90.00
             514.67,90.00 509.67,74.00 509.67,74.00
             509.67,74.00 506.30,66.91 506.30,66.91
             506.30,66.91 498.00,66.91 498.00,66.91
             498.00,66.91 480.00,68.00 480.00,68.00 Z
           M 571.00,66.00
           C 571.00,66.00 569.00,85.00 569.00,85.00
             569.00,85.00 587.00,87.00 587.00,87.00
             587.00,87.00 583.84,112.00 583.84,112.00
             583.84,112.00 578.00,163.00 578.00,163.00
             578.00,163.00 601.00,166.00 601.00,166.00
             601.00,166.00 606.72,116.00 606.72,116.00
             606.72,116.00 610.00,89.00 610.00,89.00
             612.99,89.73 625.05,91.77 627.26,90.01
             629.57,88.16 629.99,75.27 630.00,72.00
             630.00,72.00 571.00,66.00 571.00,66.00 Z
           M 363.00,98.00
           C 363.00,98.00 372.67,129.00 372.67,129.00
             372.67,129.00 393.00,189.00 393.00,189.00
             393.00,189.00 443.00,173.00 443.00,173.00
             443.00,173.00 437.00,154.00 437.00,154.00
             437.00,154.00 408.00,163.00 408.00,163.00
             408.00,163.00 402.00,144.00 402.00,144.00
             402.00,144.00 428.00,135.00 428.00,135.00
             428.00,135.00 422.00,117.00 422.00,117.00
             422.00,117.00 395.00,125.00 395.00,125.00
             395.00,125.00 390.00,109.00 390.00,109.00
             390.00,109.00 418.00,100.00 418.00,100.00
             418.00,100.00 413.00,82.00 413.00,82.00
             413.00,82.00 363.00,98.00 363.00,98.00 Z
           M 683.00,85.00
           C 683.00,85.00 661.19,140.00 661.19,140.00
             661.19,140.00 648.00,175.00 648.00,175.00
             648.00,175.00 669.00,183.00 669.00,183.00
             669.00,183.00 683.00,146.00 683.00,146.00
             683.00,146.00 700.00,152.00 700.00,152.00
             700.00,152.00 685.00,189.00 685.00,189.00
             685.00,189.00 707.00,197.00 707.00,197.00
             707.00,197.00 715.19,175.00 715.19,175.00
             715.19,175.00 741.00,108.00 741.00,108.00
             741.00,108.00 720.00,100.00 720.00,100.00
             720.00,100.00 707.00,133.00 707.00,133.00
             707.00,133.00 691.00,127.00 691.00,127.00
             691.00,127.00 704.00,93.00 704.00,93.00
             704.00,93.00 683.00,85.00 683.00,85.00 Z
           M 500.00,88.00
           C 500.00,88.00 507.00,124.00 507.00,124.00
             507.00,124.00 495.00,125.00 495.00,125.00
             495.00,125.00 497.42,99.00 497.42,99.00
             497.42,99.00 500.00,88.00 500.00,88.00 Z
           M 325.00,187.00
           C 325.00,187.00 295.09,154.00 295.09,154.00
             292.28,150.98 285.90,142.46 282.00,141.90
             279.80,141.58 277.73,143.17 276.00,144.30
             276.00,144.30 263.00,153.00 263.00,153.00
             263.00,153.00 288.00,206.00 288.00,206.00
             288.00,206.00 261.00,175.00 261.00,175.00
             258.87,172.53 252.73,164.41 249.83,163.87
             246.31,163.22 234.43,172.69 231.00,175.00
             235.15,180.79 241.85,186.85 247.00,192.00
             247.00,192.00 282.00,226.00 282.00,226.00
             282.00,226.00 294.00,237.99 294.00,237.99
             295.79,239.74 298.33,242.61 301.00,242.70
             302.75,242.76 304.58,241.53 306.00,240.65
             309.70,238.36 320.20,232.72 319.72,227.99
             319.52,225.94 314.49,216.49 313.25,214.00
             313.25,214.00 296.00,181.00 296.00,181.00
             296.00,181.00 322.17,211.00 322.17,211.00
             322.17,211.00 333.04,220.89 333.04,220.89
             333.04,220.89 340.00,217.42 340.00,217.42
             340.00,217.42 353.00,209.00 353.00,209.00
             353.00,209.00 337.28,171.00 337.28,171.00
             337.28,171.00 315.00,119.00 315.00,119.00
             310.81,120.33 297.71,127.66 296.99,132.09
             296.47,135.21 302.11,143.84 303.74,147.00
             303.74,147.00 325.00,187.00 325.00,187.00 Z
           M 736.00,213.00
           C 736.00,213.00 750.00,224.14 750.00,224.14
             750.00,224.14 778.00,244.00 778.00,244.00
             782.52,240.18 787.88,232.54 790.00,227.00
             790.00,227.00 766.00,211.00 766.00,211.00
             766.00,211.00 777.00,194.00 777.00,194.00
             777.00,194.00 793.00,205.14 793.00,205.14
             794.79,206.39 797.50,208.55 799.83,208.13
             803.70,207.42 809.63,196.58 811.00,193.00
             811.00,193.00 789.00,178.00 789.00,178.00
             789.00,178.00 798.00,164.00 798.00,164.00
             798.00,164.00 822.00,181.00 822.00,181.00
             827.11,176.74 830.77,170.76 834.00,165.00
             834.00,165.00 803.00,143.28 803.00,143.28
             800.45,141.50 794.25,136.29 791.18,136.87
             788.93,137.30 787.20,140.27 785.98,142.00
             785.98,142.00 776.14,156.00 776.14,156.00
             776.14,156.00 736.00,213.00 736.00,213.00 Z
           M 296.00,180.00
           C 296.00,180.00 296.00,181.00 296.00,181.00
             296.00,181.00 295.00,180.00 295.00,180.00
             295.00,180.00 296.00,180.00 296.00,180.00 Z
           M 326.00,187.00
           C 326.00,187.00 326.00,188.00 326.00,188.00
             326.00,188.00 325.00,187.00 325.00,187.00
             325.00,187.00 326.00,187.00 326.00,187.00 Z
           M 805.00,263.00
           C 806.96,269.69 814.12,276.10 819.00,281.00
             824.94,277.53 842.98,261.49 847.00,256.00
             848.70,257.76 850.93,259.87 852.13,262.00
             854.77,266.68 852.06,270.45 848.82,273.91
             844.77,278.23 832.57,286.60 831.45,292.00
             830.84,294.92 833.13,296.97 834.85,299.00
             834.85,299.00 847.00,313.00 847.00,313.00
             850.49,307.71 849.66,306.95 854.76,301.04
             860.83,294.00 869.64,288.44 872.36,279.00
             873.20,276.11 873.00,272.06 873.00,269.00
             876.81,270.08 881.07,270.46 885.00,269.61
             895.01,267.45 906.17,256.53 906.90,246.00
             907.73,234.17 897.39,224.21 890.15,216.00
             887.74,213.25 879.02,202.35 875.91,202.03
             873.35,201.77 870.73,204.45 869.00,206.03
             869.00,206.03 857.00,216.92 857.00,216.92
             857.00,216.92 805.00,263.00 805.00,263.00 Z
           M 291.00,209.00
           C 291.00,209.00 291.00,210.00 291.00,210.00
             291.00,210.00 290.00,209.00 290.00,209.00
             290.00,209.00 291.00,209.00 291.00,209.00 Z
           M 881.00,228.00
           C 882.65,230.17 884.45,232.36 885.30,235.00
             887.66,242.33 879.35,250.83 872.00,249.57
             867.12,248.73 861.68,244.35 866.19,239.43
             866.19,239.43 873.00,233.61 873.00,233.61
             875.97,231.21 877.69,229.92 881.00,228.00 Z
           M 276.00,276.00
           C 276.00,276.00 303.83,295.81 303.83,295.81
             303.83,295.81 329.00,312.00 329.00,312.00
             304.19,334.80 280.73,362.03 264.89,392.00
             264.89,392.00 247.55,429.00 247.55,429.00
             247.55,429.00 239.73,449.78 239.73,449.78
             239.73,449.78 223.05,465.00 223.05,465.00
             219.93,468.33 210.54,482.78 208.67,486.99
             208.67,486.99 204.83,499.91 204.83,499.91
             202.18,511.72 205.42,523.03 209.40,533.99
             211.51,539.79 215.90,543.70 215.27,546.82
             214.58,550.25 207.07,553.48 202.32,559.02
             194.64,567.97 187.14,583.03 187.00,595.00
             186.77,615.17 199.53,637.97 218.00,646.62
             223.24,649.07 228.38,650.63 234.04,651.72
             239.28,652.73 242.62,651.92 245.86,657.05
             245.86,657.05 258.25,685.00 258.25,685.00
             267.11,702.75 279.28,722.35 291.42,738.00
             337.31,797.14 403.98,838.25 477.25,853.05
             491.67,855.97 511.47,858.90 526.00,859.00
             542.71,859.11 559.34,859.49 576.00,857.49
             618.99,852.31 653.63,840.71 692.00,820.61
             703.59,814.53 718.50,804.68 729.00,796.76
             729.00,796.76 746.09,783.20 746.09,783.20
             749.89,781.44 752.80,783.90 756.00,785.80
             756.00,785.80 776.00,797.60 776.00,797.60
             779.15,799.49 783.92,803.23 787.47,800.39
             792.55,796.32 789.24,791.65 785.91,788.00
             785.91,788.00 770.01,772.00 770.01,772.00
             767.11,768.99 764.56,767.12 767.25,763.00
             767.25,763.00 775.55,753.92 775.55,753.92
             775.55,753.92 793.37,731.99 793.37,731.99
             805.47,716.02 818.14,693.25 826.62,675.00
             834.79,657.41 840.95,638.79 845.61,620.00
             845.61,620.00 849.33,603.04 849.33,603.04
             849.73,600.58 850.53,593.64 851.44,591.72
             851.44,591.72 869.04,571.00 869.04,571.00
             869.04,571.00 876.37,556.00 876.37,556.00
             877.48,552.55 877.04,550.36 879.51,547.09
             879.51,547.09 888.54,538.83 888.54,538.83
             895.00,531.79 898.72,523.79 898.83,514.17
             899.09,491.99 884.50,476.73 865.00,468.34
             860.40,466.36 846.41,464.88 844.07,461.79
             844.07,461.79 837.77,442.91 837.77,442.91
             832.77,429.48 827.84,415.75 821.22,403.00
             797.53,357.42 763.08,316.86 720.91,287.34
             683.46,261.13 636.33,241.43 591.00,234.42
             591.00,234.42 551.00,230.96 551.00,230.96
             551.00,230.96 538.00,230.00 538.00,230.00
             538.00,230.00 527.00,230.96 527.00,230.96
             505.51,231.93 485.93,234.35 464.99,239.38
             443.17,244.62 422.31,252.91 402.00,262.31
             402.00,262.31 376.00,275.39 376.00,275.39
             373.34,276.09 370.72,276.00 368.00,276.00
             368.00,276.00 276.00,276.00 276.00,276.00 Z
           M 534.00,241.00
           C 534.00,241.00 534.00,360.00 534.00,360.00
             528.95,358.53 528.31,357.43 524.00,355.51
             524.00,355.51 505.00,349.24 505.00,349.24
             500.71,348.23 499.13,348.28 495.00,347.84
             475.56,345.76 479.30,347.50 462.00,348.83
             452.83,349.53 447.55,339.84 441.96,334.00
             441.96,334.00 408.72,299.00 408.72,299.00
             400.72,289.94 398.15,289.89 393.00,278.00
             437.43,254.53 483.54,241.00 534.00,241.00 Z
           M 687.00,278.00
           C 687.00,278.00 671.60,306.00 671.60,306.00
             671.60,306.00 638.00,365.00 638.00,365.00
             638.00,365.00 621.00,362.17 621.00,362.17
             621.00,362.17 572.00,361.00 572.00,361.00
             572.00,361.00 546.00,363.00 546.00,363.00
             546.00,363.00 546.00,241.00 546.00,241.00
             594.63,241.00 644.64,253.89 687.00,278.00 Z
           M 698.00,284.00
           C 698.00,284.00 726.00,303.42 726.00,303.42
             753.29,324.69 784.59,357.34 801.00,388.00
             801.00,388.00 763.00,409.80 763.00,409.80
             763.00,409.80 740.00,422.00 740.00,422.00
             735.01,414.56 732.66,413.25 726.00,407.75
             709.36,394.01 693.93,385.77 674.00,377.80
             667.09,375.04 655.99,370.10 649.00,369.00
             649.00,369.00 660.20,348.00 660.20,348.00
             660.20,348.00 677.58,318.00 677.58,318.00
             677.58,318.00 698.00,284.00 698.00,284.00 Z
           M 498.00,407.00
           C 498.00,407.00 467.00,407.00 467.00,407.00
             467.00,407.00 502.96,444.00 502.96,444.00
             502.96,444.00 511.04,453.00 511.04,453.00
             511.04,453.00 537.96,480.00 537.96,480.00
             537.96,480.00 547.01,490.00 547.01,490.00
             547.01,490.00 591.00,536.00 591.00,536.00
             591.00,536.00 562.00,536.00 562.00,536.00
             562.00,536.00 589.08,564.96 589.08,564.96
             589.08,564.96 644.08,622.99 644.08,622.99
             644.08,622.99 683.00,665.00 683.00,665.00
             683.00,665.00 652.00,665.00 652.00,665.00
             652.00,665.00 684.00,698.00 684.00,698.00
             684.00,698.00 699.01,714.00 699.01,714.00
             699.01,714.00 723.83,738.17 723.83,738.17
             723.83,738.17 733.00,748.00 733.00,748.00
             733.00,748.00 760.00,776.00 760.00,776.00
             760.00,776.00 722.00,754.40 722.00,754.40
             722.00,754.40 659.00,717.20 659.00,717.20
             659.00,717.20 606.00,686.00 606.00,686.00
             606.00,686.00 582.00,671.00 582.00,671.00
             582.00,671.00 643.00,644.00 643.00,644.00
             643.00,644.00 571.00,596.67 571.00,596.67
             571.00,596.67 491.00,544.00 491.00,544.00
             491.00,544.00 491.00,542.00 491.00,542.00
             491.00,542.00 552.00,515.00 552.00,515.00
             552.00,515.00 512.00,489.34 512.00,489.34
             512.00,489.34 440.00,442.66 440.00,442.66
             440.00,442.66 397.00,415.00 397.00,415.00
             397.00,415.00 413.00,406.14 413.00,406.14
             413.00,406.14 452.00,386.00 452.00,386.00
             452.00,386.00 366.28,327.08 366.28,327.08
             366.28,327.08 326.17,299.81 326.17,299.81
             326.17,299.81 305.00,286.00 305.00,286.00
             309.49,284.22 321.59,285.00 327.00,285.14
             327.00,285.14 375.00,285.14 375.00,285.14
             376.90,285.00 380.17,284.92 381.91,285.14
             386.36,286.73 393.82,296.33 397.16,299.99
             397.16,299.99 411.72,315.00 411.72,315.00
             411.72,315.00 427.91,332.00 427.91,332.00
             427.91,332.00 470.07,376.96 470.07,376.96
             470.07,376.96 498.00,407.00 498.00,407.00 Z
           M 135.00,287.00
           C 135.00,287.00 124.00,307.00 124.00,307.00
             124.00,307.00 182.00,343.66 182.00,343.66
             182.00,343.66 197.00,353.30 197.00,353.30
             198.82,354.45 201.67,356.36 203.91,356.01
             207.24,355.49 210.55,348.76 212.34,346.00
             216.68,339.32 228.96,321.40 231.00,315.00
             231.00,315.00 214.00,305.00 214.00,305.00
             214.00,305.00 204.69,320.00 204.69,320.00
             203.59,321.68 201.85,324.96 199.79,325.47
             196.66,326.25 185.16,317.77 182.00,315.81
             182.00,315.81 153.00,297.31 153.00,297.31
             147.65,293.87 140.94,288.89 135.00,287.00 Z
           M 409.00,367.00
           C 409.00,367.00 396.46,379.09 396.46,379.09
             386.41,390.47 378.82,404.03 376.00,419.00
             368.65,419.01 362.03,420.11 355.00,422.33
             352.02,423.26 348.91,425.55 346.00,425.39
             342.70,425.20 329.74,416.99 326.00,414.85
             326.00,414.85 280.00,388.00 280.00,388.00
             282.29,380.75 287.62,374.15 292.00,368.00
             300.27,356.40 310.99,343.06 321.00,333.00
             324.40,329.58 333.12,319.00 338.00,319.65
             341.47,320.11 355.29,330.42 359.00,332.98
             359.00,332.98 409.00,367.00 409.00,367.00 Z
           M 933.00,398.00
           C 933.00,398.00 927.00,378.00 927.00,378.00
             913.17,379.25 900.38,388.13 900.01,403.00
             899.61,419.72 910.03,438.18 929.00,436.68
             943.44,435.53 954.55,429.16 959.25,415.00
             961.93,406.95 964.00,389.69 973.00,386.78
             977.88,385.20 982.07,389.88 980.61,393.99
             979.03,398.44 973.37,399.68 972.03,401.69
             970.26,404.36 975.18,419.33 978.27,420.19
             980.29,420.76 984.20,418.96 986.00,418.02
             994.05,413.80 998.88,407.08 999.67,398.00
             999.96,394.72 998.91,389.18 997.96,386.00
             994.14,373.18 986.10,364.47 972.00,365.04
             963.51,365.38 952.77,369.90 947.85,377.01
             945.54,380.35 943.60,386.07 942.34,390.00
             940.00,397.31 938.28,407.69 931.96,412.57
             924.45,418.36 917.93,411.41 919.78,406.09
             921.37,401.52 928.76,399.15 933.00,398.00 Z
           M 94.00,369.00
           C 94.00,369.00 87.34,387.00 87.34,387.00
             87.34,387.00 86.20,394.79 86.20,394.79
             86.20,394.79 93.00,400.20 93.00,400.20
             93.00,400.20 107.00,408.81 107.00,408.81
             107.00,408.81 148.00,434.00 148.00,434.00
             148.00,434.00 169.00,446.00 169.00,446.00
             169.00,446.00 176.00,424.00 176.00,424.00
             176.00,424.00 160.00,416.00 160.00,416.00
             160.00,416.00 165.00,400.00 165.00,400.00
             165.00,400.00 182.58,402.34 182.58,402.34
             182.58,402.34 186.00,397.00 186.00,397.00
             186.00,397.00 191.00,381.00 191.00,381.00
             191.00,381.00 141.00,375.15 141.00,375.15
             141.00,375.15 94.00,369.00 94.00,369.00 Z
           M 109.00,387.00
           C 109.00,387.00 145.00,396.00 145.00,396.00
             145.00,396.00 140.00,407.00 140.00,407.00
             140.00,407.00 108.00,388.00 108.00,388.00
             108.00,388.00 109.00,387.00 109.00,387.00 Z
           M 337.00,434.00
           C 337.00,434.00 337.00,436.00 337.00,436.00
             337.00,436.00 336.00,437.00 336.00,437.00
             318.24,433.43 299.89,433.16 282.00,436.46
             282.00,436.46 253.00,444.00 253.00,444.00
             255.71,432.42 267.18,409.02 273.00,398.00
             273.00,398.00 297.00,410.99 297.00,410.99
             297.00,410.99 337.00,434.00 337.00,434.00 Z
           M 807.00,398.00
           C 813.93,410.18 819.41,423.01 824.60,436.00
             827.68,443.72 832.27,455.88 833.00,464.00
             824.13,464.19 815.18,465.56 807.00,469.00
             805.42,466.05 801.81,459.48 799.62,457.27
             797.52,455.15 794.66,454.01 792.00,452.75
             779.20,446.66 773.83,451.23 762.00,454.00
             762.00,454.00 749.00,431.00 749.00,431.00
             749.00,431.00 780.00,412.80 780.00,412.80
             780.00,412.80 807.00,398.00 807.00,398.00 Z
           M 66.00,463.00
           C 66.00,463.00 64.00,483.00 64.00,483.00
             74.72,485.61 107.00,487.00 119.00,487.00
             119.00,487.00 80.00,495.40 80.00,495.40
             80.00,495.40 63.60,499.73 63.60,499.73
             63.60,499.73 61.72,506.00 61.72,506.00
             61.72,506.00 60.00,523.00 60.00,523.00
             60.00,523.00 107.00,527.83 107.00,527.83
             107.00,527.83 155.00,533.00 155.00,533.00
             155.00,533.00 158.00,512.00 158.00,512.00
             158.00,512.00 119.00,509.00 119.00,509.00
             119.00,509.00 104.00,508.00 104.00,508.00
             104.00,508.00 144.00,499.80 144.00,499.80
             147.25,499.15 157.16,497.90 158.98,495.44
             160.13,493.88 159.97,490.90 160.17,489.00
             160.17,489.00 162.00,473.00 162.00,473.00
             162.00,473.00 104.00,466.83 104.00,466.83
             104.00,466.83 66.00,463.00 66.00,463.00 Z
           M 918.00,476.00
           C 918.00,476.00 924.00,528.00 924.00,528.00
             924.00,528.00 944.00,526.00 944.00,526.00
             944.00,526.00 941.00,496.00 941.00,496.00
             941.00,496.00 961.00,494.00 961.00,494.00
             961.00,494.00 964.00,521.00 964.00,521.00
             964.00,521.00 984.00,519.00 984.00,519.00
             984.00,519.00 981.00,491.82 981.00,491.82
             984.25,491.57 993.92,489.41 996.26,491.82
             998.41,493.68 999.20,508.25 999.72,512.00
             999.98,513.90 999.97,516.70 1001.60,517.98
             1002.98,519.06 1005.35,518.95 1007.00,518.83
             1007.00,518.83 1020.00,517.00 1020.00,517.00
             1020.00,517.00 1016.84,491.00 1016.84,491.00
             1016.84,491.00 1014.00,465.00 1014.00,465.00
             1014.00,465.00 998.00,466.84 998.00,466.84
             998.00,466.84 973.00,469.72 973.00,469.72
             973.00,469.72 918.00,476.00 918.00,476.00 Z
           M 925.00,561.00
           C 925.00,561.00 922.00,583.00 922.00,583.00
             922.00,583.00 960.00,588.00 960.00,588.00
             959.57,590.26 958.98,593.95 957.84,595.89
             953.15,603.85 937.54,598.88 930.00,598.17
             927.69,597.95 923.47,597.75 921.53,599.17
             919.34,600.79 919.23,604.53 918.95,607.00
             918.95,607.00 917.00,625.00 917.00,625.00
             933.45,618.68 940.88,625.57 955.00,622.48
             960.24,621.34 962.75,618.91 967.00,616.00
             972.87,630.98 999.07,635.23 1009.61,622.91
             1015.12,616.46 1016.17,605.19 1017.15,597.00
             1017.15,597.00 1020.00,572.00 1020.00,572.00
             1020.00,572.00 996.00,569.28 996.00,569.28
             996.00,569.28 925.00,561.00 925.00,561.00 Z
           M 120.00,569.42
           C 105.01,571.56 76.75,572.43 66.33,584.09
             54.02,597.86 58.21,636.65 87.00,637.00
             102.08,637.18 118.28,635.50 133.00,632.11
             141.13,630.24 148.00,628.46 153.79,621.96
             164.87,609.53 161.57,583.39 148.00,573.80
             140.35,568.39 128.97,568.33 120.00,569.42 Z
           M 1003.00,594.00
           C 1001.94,598.00 1001.48,602.78 997.87,605.40
             993.69,608.44 983.58,607.59 980.16,600.98
             978.70,597.71 979.56,594.42 980.16,591.00
             980.16,591.00 1003.00,594.00 1003.00,594.00 Z
           M 121.00,593.28
           C 124.91,592.92 134.51,592.40 137.78,594.31
             141.66,596.59 143.49,603.57 138.77,607.28
             136.11,609.37 129.44,610.29 126.00,610.71
             114.14,612.19 101.95,613.06 90.00,613.00
             84.53,612.97 79.60,612.87 79.13,606.00
             78.98,603.95 79.32,601.88 80.60,600.23
             83.25,596.78 88.99,596.40 93.00,595.95
             93.00,595.95 121.00,593.28 121.00,593.28 Z
           M 839.00,600.00
           C 838.72,610.10 833.00,629.10 829.67,639.00
             819.84,668.24 806.70,695.94 788.58,721.01
             786.25,724.23 780.19,732.95 777.63,735.21
             774.85,737.67 763.79,742.98 760.00,744.55
             757.47,745.60 750.47,748.58 747.91,748.04
             744.59,747.33 739.50,741.50 737.00,739.00
             737.00,739.00 714.91,717.00 714.91,717.00
             714.91,717.00 698.00,700.00 698.00,700.00
             696.05,698.05 691.02,693.44 690.30,691.00
             689.34,687.75 692.77,684.39 694.56,682.00
             695.87,680.26 698.31,676.10 700.26,675.40
             702.61,674.55 709.27,677.55 712.00,678.24
             715.11,679.03 727.90,679.62 731.00,679.08
             742.11,677.13 740.78,676.61 750.00,671.97
             750.00,671.97 758.00,668.03 758.00,668.03
             767.11,662.16 775.07,652.14 775.75,641.00
             776.36,631.24 772.39,624.76 769.00,615.96
             769.00,615.96 780.00,615.96 780.00,615.96
             788.93,615.34 804.76,613.15 813.42,611.08
             825.49,608.19 828.85,605.07 839.00,600.00 Z
           M 437.00,678.00
           C 442.41,685.20 453.34,692.91 460.85,698.19
             460.85,698.19 471.00,705.12 471.00,705.12
             471.00,705.12 479.00,708.71 479.00,708.71
             479.00,708.71 493.00,714.76 493.00,714.76
             511.03,720.87 535.96,724.03 555.00,724.00
             565.40,723.98 569.99,722.57 579.83,720.64
             593.17,718.01 610.93,713.94 622.00,706.00
             622.00,706.00 684.00,742.72 684.00,742.72
             684.00,742.72 701.00,752.80 701.00,752.80
             705.14,755.24 707.61,755.64 710.00,760.00
             688.70,761.73 671.48,761.45 650.83,755.02
             644.43,753.03 637.98,750.94 632.00,747.89
             628.47,746.09 620.80,741.68 617.00,741.77
             614.14,741.83 608.84,745.05 606.00,746.39
             606.00,746.39 585.00,755.14 585.00,755.14
             580.35,757.00 573.08,758.30 568.00,759.42
             556.42,761.98 543.93,764.67 532.00,763.79
             532.00,763.79 516.00,762.11 516.00,762.11
             516.00,762.11 487.00,753.48 487.00,753.48
             487.00,753.48 470.00,745.34 470.00,745.34
             467.18,744.07 464.19,741.91 461.00,742.66
             458.51,743.25 453.67,746.96 450.83,748.36
             450.83,748.36 428.01,758.36 428.01,758.36
             424.05,759.81 423.50,759.45 419.92,760.30
             401.01,764.75 404.44,763.51 386.00,764.49
             368.00,765.45 335.65,756.40 320.00,747.58
             316.41,745.55 308.87,741.92 306.18,739.65
             302.04,736.16 290.80,720.23 287.31,714.99
             275.34,697.02 263.08,674.41 256.00,654.00
             266.56,654.00 278.91,651.21 289.00,647.97
             292.76,646.76 300.57,642.32 303.99,643.40
             307.35,644.45 312.60,652.07 315.29,654.91
             318.29,658.09 330.06,666.69 334.00,669.07
             334.00,669.07 345.00,674.31 345.00,674.31
             362.76,682.44 373.49,685.03 393.00,685.00
             401.34,684.99 400.05,684.37 407.00,683.63
             421.58,682.09 422.53,682.72 437.00,678.00 Z
           M 84.00,693.00
           C 84.00,693.00 91.00,715.00 91.00,715.00
             91.00,715.00 147.00,696.00 147.00,696.00
             147.00,696.00 182.00,684.00 182.00,684.00
             182.00,684.00 177.00,669.00 177.00,669.00
             177.00,669.00 173.58,663.67 173.58,663.67
             173.58,663.67 166.00,665.00 166.00,665.00
             166.00,665.00 149.00,670.95 149.00,670.95
             149.00,670.95 84.00,693.00 84.00,693.00 Z
           M 977.00,745.00
           C 977.00,745.00 982.81,730.00 982.81,730.00
             983.53,728.07 984.79,725.25 984.22,723.18
             983.25,719.71 974.20,715.42 971.00,713.58
             957.57,705.88 944.23,697.13 930.00,691.00
             935.46,690.19 940.66,692.11 946.00,693.20
             946.00,693.20 976.00,699.20 976.00,699.20
             979.93,699.99 990.28,703.21 993.30,700.40
             995.02,698.80 998.94,687.75 999.55,685.00
             1000.24,683.33 1000.89,681.38 999.55,680.02
             998.24,679.03 994.54,678.65 993.00,678.42
             993.00,678.42 978.00,676.27 978.00,676.27
             978.00,676.27 926.00,669.00 926.00,669.00
             922.75,668.56 907.39,665.90 905.39,666.66
             902.66,667.71 901.19,673.39 900.19,676.00
             899.14,678.78 895.40,687.43 895.92,689.91
             896.45,692.41 899.03,693.99 901.00,695.30
             901.00,695.30 916.00,705.00 916.00,705.00
             916.00,705.00 941.00,721.67 941.00,721.67
             941.00,721.67 977.00,745.00 977.00,745.00 Z
           M 136.00,767.00
           C 134.83,763.80 130.22,753.57 126.79,752.87
             124.17,752.33 114.23,758.56 111.00,760.00
             111.00,760.00 121.60,780.00 121.60,780.00
             121.60,780.00 140.00,812.00 140.00,812.00
             140.00,812.00 157.00,803.00 157.00,803.00
             157.00,803.00 148.00,787.00 148.00,787.00
             148.00,787.00 176.00,771.60 176.00,771.60
             176.00,771.60 215.00,749.00 215.00,749.00
             215.00,749.00 207.60,736.00 207.60,736.00
             206.50,734.23 204.99,731.33 202.79,730.82
             199.54,730.06 187.38,738.06 184.00,740.00
             184.00,740.00 136.00,767.00 136.00,767.00 Z
           M 872.00,737.00
           C 872.00,737.00 864.21,750.00 864.21,750.00
             864.21,750.00 862.24,756.79 862.24,756.79
             862.24,756.79 868.00,761.42 868.00,761.42
             868.00,761.42 884.00,770.72 884.00,770.72
             884.00,770.72 944.00,805.00 944.00,805.00
             944.00,805.00 956.00,785.00 956.00,785.00
             956.00,785.00 903.00,754.15 903.00,754.15
             903.00,754.15 872.00,737.00 872.00,737.00 Z
           M 739.00,775.00
           C 734.09,780.93 722.56,789.03 716.00,793.71
             697.60,806.82 679.73,816.56 659.00,825.42
             575.41,861.15 475.90,856.62 396.00,813.31
             377.91,803.50 360.81,792.28 345.00,779.08
             339.11,774.16 329.27,765.96 325.00,760.00
             325.00,760.00 339.00,765.28 339.00,765.28
             353.96,769.84 369.32,773.35 385.00,773.96
             385.00,773.96 396.00,773.09 396.00,773.09
             396.00,773.09 407.00,772.54 407.00,772.54
             422.80,769.76 429.48,767.56 444.00,761.14
             444.00,761.14 463.00,752.60 463.00,752.60
             467.25,752.49 480.95,760.51 486.00,762.55
             498.60,767.64 520.40,772.84 534.00,773.00
             547.95,773.16 574.03,768.81 587.00,763.94
             587.00,763.94 607.00,755.58 607.00,755.58
             609.32,754.59 614.83,751.87 617.00,751.68
             620.61,751.35 628.31,755.97 632.00,757.58
             641.09,761.53 650.41,764.35 660.00,766.85
             672.80,770.18 685.90,770.06 699.00,770.00
             699.00,770.00 724.00,766.81 724.00,766.81
             727.11,767.44 735.80,773.08 739.00,775.00 Z
           M 761.00,754.00
           C 761.00,754.00 761.00,755.00 761.00,755.00
             761.00,755.00 760.00,754.00 760.00,754.00
             760.00,754.00 761.00,754.00 761.00,754.00 Z
           M 760.00,755.00
           C 760.00,755.00 757.00,759.00 757.00,759.00
             757.00,759.00 754.00,756.00 754.00,756.00
             754.00,756.00 760.00,755.00 760.00,755.00 Z
           M 325.00,759.00
           C 325.00,759.00 325.00,760.00 325.00,760.00
             325.00,760.00 324.00,759.00 324.00,759.00
             324.00,759.00 325.00,759.00 325.00,759.00 Z
           M 712.00,759.00
           C 712.00,759.00 712.00,760.00 712.00,760.00
             712.00,760.00 711.00,759.00 711.00,759.00
             711.00,759.00 712.00,759.00 712.00,759.00 Z
           M 761.00,776.00
           C 761.00,776.00 761.00,777.00 761.00,777.00
             761.00,777.00 760.00,776.00 760.00,776.00
             760.00,776.00 761.00,776.00 761.00,776.00 Z
           M 237.00,783.00
           C 237.00,783.00 199.14,837.00 199.14,837.00
             199.14,837.00 187.33,854.00 187.33,854.00
             187.33,854.00 182.45,862.00 182.45,862.00
             182.45,862.00 185.06,868.00 185.06,868.00
             185.06,868.00 199.00,881.59 199.00,881.59
             199.00,881.59 207.00,878.99 207.00,878.99
             207.00,878.99 222.00,870.00 222.00,870.00
             222.00,870.00 284.00,833.00 284.00,833.00
             284.00,833.00 269.00,816.00 269.00,816.00
             265.79,817.57 256.11,824.21 254.00,824.32
             251.56,824.44 249.68,822.57 248.09,820.97
             239.28,812.09 246.60,807.89 253.00,800.00
             253.00,800.00 237.00,783.00 237.00,783.00 Z
           M 836.00,798.47
           C 828.21,800.32 823.66,803.36 818.01,809.01
             806.28,820.75 804.35,834.28 814.04,848.00
             815.84,850.54 820.30,855.96 823.00,857.26
             827.44,859.39 833.20,851.10 835.94,848.00
             837.15,846.63 838.80,844.97 838.80,843.00
             838.80,841.02 837.16,839.40 835.98,838.00
             833.74,835.36 829.89,831.66 829.64,828.00
             829.37,823.98 833.85,818.56 840.00,821.09
             844.26,822.84 851.62,829.66 855.00,833.00
             855.00,833.00 872.83,851.00 872.83,851.00
             876.32,854.92 881.32,860.61 876.57,865.60
             868.49,874.09 862.30,858.49 855.00,863.37
             852.51,865.04 844.20,873.06 844.20,876.00
             844.20,878.52 847.19,881.05 849.00,882.47
             853.73,886.19 860.93,889.53 867.00,889.91
             883.85,890.95 903.40,870.97 900.53,854.00
             898.80,843.73 892.08,836.17 885.00,829.00
             872.57,816.43 855.52,795.75 836.00,798.47 Z
           M 229.00,830.00
           C 229.00,830.00 236.00,840.00 236.00,840.00
             236.00,840.00 205.00,858.00 205.00,858.00
             205.00,858.00 214.87,845.00 214.87,845.00
             214.87,845.00 229.00,830.00 229.00,830.00 Z
           M 305.00,850.00
           C 305.00,850.00 267.33,907.00 267.33,907.00
             267.33,907.00 257.66,922.00 257.66,922.00
             256.55,923.72 254.22,926.84 254.30,928.91
             254.41,931.77 267.09,942.23 271.47,938.58
             271.47,938.58 279.33,927.00 279.33,927.00
             283.77,920.30 294.80,902.95 297.00,896.00
             297.42,901.14 295.42,906.09 294.00,911.00
             294.00,911.00 287.14,935.00 287.14,935.00
             286.23,938.20 282.98,947.00 284.20,949.82
             285.59,953.03 298.42,960.39 302.00,963.00
             306.54,959.03 312.69,948.47 316.33,943.00
             316.33,943.00 342.33,904.00 342.33,904.00
             342.33,904.00 351.33,890.00 351.33,890.00
             352.48,888.22 354.55,885.41 354.13,883.18
             353.41,879.41 341.60,873.15 338.00,872.00
             331.02,882.47 314.97,906.17 311.00,917.00
             311.00,917.00 314.28,902.00 314.28,902.00
             314.28,902.00 321.29,878.00 321.29,878.00
             321.29,878.00 324.39,863.32 324.39,863.32
             324.39,863.32 319.00,858.33 319.00,858.33
             319.00,858.33 305.00,850.00 305.00,850.00 Z
           M 726.00,882.00
           C 726.00,882.00 736.00,899.00 736.00,899.00
             736.00,899.00 762.00,883.00 762.00,883.00
             762.00,883.00 773.00,900.00 773.00,900.00
             773.00,900.00 750.00,915.00 750.00,915.00
             750.00,915.00 760.00,931.00 760.00,931.00
             766.24,929.01 778.52,920.23 784.00,916.00
             784.00,916.00 793.00,931.00 793.00,931.00
             793.00,931.00 769.00,946.00 769.00,946.00
             769.00,946.00 778.00,962.00 778.00,962.00
             785.35,960.20 803.65,946.57 811.00,941.67
             813.63,939.91 820.56,936.11 820.99,932.91
             821.28,930.67 819.17,927.80 818.00,926.00
             818.00,926.00 808.67,912.00 808.67,912.00
             808.67,912.00 770.00,854.00 770.00,854.00
             770.00,854.00 726.00,882.00 726.00,882.00 Z
           M 205.00,858.00
           C 205.00,858.00 205.00,859.00 205.00,859.00
             205.00,859.00 204.00,858.00 204.00,858.00
             204.00,858.00 205.00,858.00 205.00,858.00 Z
           M 310.00,918.00
           C 310.00,918.00 310.00,919.00 310.00,919.00
             310.00,919.00 309.00,918.00 309.00,918.00
             309.00,918.00 310.00,918.00 310.00,918.00 Z
           M 418.00,929.00
           C 418.00,929.00 412.00,948.00 412.00,948.00
             412.00,948.00 391.00,948.00 391.00,948.00
             394.72,954.47 403.67,957.19 405.58,961.17
             407.27,964.67 402.01,976.58 401.00,981.00
             401.00,981.00 418.00,970.77 418.00,970.77
             418.00,970.77 435.00,981.00 435.00,981.00
             434.32,976.58 429.71,964.76 430.54,962.09
             431.55,958.84 442.68,951.27 446.00,949.00
             446.00,949.00 425.42,946.57 425.42,946.57
             425.42,946.57 418.00,929.00 418.00,929.00 Z
           M 662.00,929.00
           C 662.00,929.00 657.00,948.00 657.00,948.00
             657.00,948.00 636.00,948.00 636.00,948.00
             639.39,954.04 647.53,956.23 650.08,960.38
             652.35,964.07 647.05,976.56 646.00,981.00
             646.00,981.00 662.17,970.64 662.17,970.64
             662.17,970.64 680.00,981.00 680.00,981.00
             680.00,981.00 675.54,962.09 675.54,962.09
             675.54,962.09 690.00,948.00 690.00,948.00
             686.05,948.00 672.39,948.85 669.85,946.57
             666.37,943.43 667.37,933.11 662.00,929.00 Z
           M 539.00,930.00
           C 539.00,930.00 532.42,950.00 532.42,950.00
             532.42,950.00 528.30,960.40 528.30,960.40
             528.30,960.40 522.00,961.83 522.00,961.83
             522.00,961.83 496.00,961.00 496.00,961.00
             500.28,968.44 517.06,975.67 520.22,981.17
             521.81,983.95 520.14,988.13 519.28,991.00
             519.28,991.00 512.00,1013.00 512.00,1013.00
             512.00,1013.00 531.00,1000.37 531.00,1000.37
             531.00,1000.37 539.58,995.37 539.58,995.37
             539.58,995.37 548.00,1000.58 548.00,1000.58
             548.00,1000.58 567.00,1013.00 567.00,1013.00
             567.00,1013.00 559.67,991.00 559.67,991.00
             558.82,988.47 557.15,984.67 558.20,982.09
             559.20,979.65 562.88,977.23 565.00,975.71
             569.87,972.21 580.23,965.81 583.00,961.00
             583.00,961.00 566.00,961.00 566.00,961.00
             566.00,961.00 554.04,961.84 554.04,961.84
             549.31,961.18 548.64,956.89 547.33,953.00
             545.41,947.25 542.01,934.21 539.00,930.00 Z" />
</svg>
