<?xml version="1.0" encoding="UTF-8" standalone="no"?>
<!DOCTYPE svg PUBLIC "-//W3C//DTD SVG 20010904//EN"
              "http://www.w3.org/TR/2001/REC-SVG-20010904/DTD/svg10.dtd">

<svg xmlns="http://www.w3.org/2000/svg"
     width="128.366mm" height="128.027mm"
     viewBox="0 0 758 756">
  <path id="Selection"
        fill="#07b1af" stroke="#07b1af" stroke-width="1"
        d="M 360.00,281.00
           C 360.00,281.00 209.00,281.00 209.00,281.00
             209.00,281.00 221.55,250.00 221.55,250.00
             221.55,250.00 245.58,192.00 245.58,192.00
             245.58,192.00 252.99,174.00 252.99,174.00
             253.97,171.62 255.25,167.45 257.41,166.02
             259.30,164.78 262.78,165.00 265.00,165.00
             265.00,165.00 401.00,165.00 401.00,165.00
             403.25,165.00 406.68,165.22 408.61,163.98
             411.62,162.04 416.21,148.01 417.86,144.00
             417.86,144.00 436.20,98.00 436.20,98.00
             439.27,90.26 444.80,78.79 446.00,71.00
             446.00,71.00 196.00,71.00 196.00,71.00
             174.77,71.03 152.03,86.74 140.52,104.00
             140.52,104.00 114.86,161.00 114.86,161.00
             114.86,161.00 74.58,258.00 74.58,258.00
             74.58,258.00 58.72,297.00 58.72,297.00
             54.35,307.31 49.13,317.57 49.00,329.00
             48.94,334.85 49.07,338.38 51.09,344.00
             52.47,347.83 54.69,351.69 57.04,355.00
             71.79,375.78 97.00,370.75 119.00,371.00
             119.00,371.00 132.00,372.00 132.00,372.00
             132.00,372.00 273.00,372.00 273.00,372.00
             273.00,372.00 290.00,371.00 290.00,371.00
             290.00,371.00 316.00,371.00 316.00,371.00
             318.22,371.00 321.70,371.22 323.59,369.98
             326.22,368.23 331.09,354.67 332.55,351.00
             332.55,351.00 351.45,304.00 351.45,304.00
             353.91,297.84 358.92,286.95 360.00,281.00 Z" />
  <path id="Selection #1"
        fill="#149cd8" stroke="#149cd8" stroke-width="1"
        d="M 228.00,268.00
           C 228.00,268.00 379.00,268.00 379.00,268.00
             379.00,268.00 363.28,306.00 363.28,306.00
             363.28,306.00 338.80,365.00 338.80,365.00
             333.85,377.23 324.15,396.27 324.15,409.00
             324.15,409.00 324.15,422.00 324.15,422.00
             326.22,435.31 335.44,452.72 348.00,458.48
             364.33,465.98 394.66,464.00 413.00,464.00
             413.00,464.00 540.00,464.00 540.00,464.00
             545.70,463.99 555.67,462.70 561.00,460.90
             577.67,455.24 595.51,438.58 604.91,424.00
             613.14,411.23 619.20,395.09 625.01,381.00
             625.01,381.00 634.68,358.00 634.68,358.00
             634.68,358.00 644.85,334.00 644.85,334.00
             644.85,334.00 660.01,298.00 660.01,298.00
             660.01,298.00 667.00,281.00 667.00,281.00
             667.00,281.00 537.00,281.00 537.00,281.00
             534.33,281.01 530.78,280.65 528.70,282.60
             526.89,284.29 522.24,296.02 521.05,299.00
             521.05,299.00 507.32,332.00 507.32,332.00
             507.32,332.00 493.03,365.00 493.03,365.00
             491.29,367.67 486.13,373.60 482.60,370.36
             480.59,368.51 481.43,365.26 482.02,363.00
             483.59,356.92 486.59,349.87 489.01,344.00
             489.01,344.00 508.28,296.00 508.28,296.00
             511.16,289.21 518.85,273.14 520.00,267.00
             520.00,267.00 665.00,267.00 665.00,267.00
             667.26,267.00 670.68,267.22 672.61,265.98
             675.59,264.06 680.79,249.94 682.40,246.00
             682.40,246.00 704.20,195.00 704.20,195.00
             706.76,188.68 710.48,181.47 712.00,175.00
             712.00,175.00 559.00,175.00 559.00,175.00
             559.00,175.00 587.06,105.00 587.06,105.00
             587.06,105.00 600.00,71.00 600.00,71.00
             600.00,71.00 470.00,71.00 470.00,71.00
             467.82,71.00 464.32,70.77 462.49,72.02
             460.68,73.27 459.28,76.98 458.42,79.00
             458.42,79.00 451.99,95.00 451.99,95.00
             451.99,95.00 426.94,156.00 426.94,156.00
             425.42,159.93 420.77,173.10 417.73,174.98
             415.74,176.21 412.30,176.00 410.00,176.00
             410.00,176.00 273.00,176.00 273.00,176.00
             270.88,176.00 267.41,175.75 265.64,176.99
             263.30,178.63 258.24,192.47 256.72,196.00
             256.72,196.00 235.94,246.00 235.94,246.00
             233.20,253.08 228.78,260.46 228.00,268.00 Z" />
  <path id="Selection #2"
        fill="white" stroke="white" stroke-width="1"
        d="M 125.00,618.00
           C 128.71,611.42 136.07,615.03 143.00,613.47
             155.14,610.75 162.67,606.08 168.63,595.00
             168.63,595.00 184.91,558.00 184.91,558.00
             187.24,552.41 192.15,541.80 193.11,536.00
             194.65,526.69 183.17,523.12 176.00,523.00
             176.00,523.00 140.00,523.00 140.00,523.00
             131.39,523.01 120.67,525.33 114.18,531.34
             106.30,538.63 98.27,560.55 93.94,571.00
             89.48,581.75 83.55,591.92 86.39,604.00
             87.51,608.77 90.56,611.34 95.00,613.04
             97.33,613.93 100.54,614.06 101.96,616.31
             103.65,618.99 101.63,621.42 103.52,626.00
             104.69,628.85 106.74,631.57 108.96,633.67
             115.21,639.55 118.00,637.17 123.00,637.18
             123.00,637.18 128.00,637.68 128.00,637.68
             128.00,637.68 154.00,637.00 154.00,637.00
             155.90,636.99 158.72,637.17 160.31,636.01
             161.73,634.96 168.73,623.20 165.97,619.60
             164.47,617.63 160.25,618.00 158.00,618.00
             158.00,618.00 125.00,618.00 125.00,618.00 Z
           M 272.00,539.00
           C 276.14,540.18 290.16,541.20 293.45,538.40
             295.47,536.68 299.96,526.83 301.00,524.00
             294.96,522.29 284.04,521.79 279.21,526.34
             276.42,528.97 273.69,535.37 272.00,539.00 Z
           M 331.00,613.00
           C 334.99,614.13 349.39,615.21 352.44,612.40
             354.35,610.65 359.56,596.41 361.00,593.00
             361.00,593.00 363.00,593.00 363.00,593.00
             363.97,596.57 369.76,611.07 372.41,612.91
             375.82,615.08 389.03,614.13 393.00,612.91
             393.00,612.91 385.95,595.00 385.95,595.00
             384.92,592.66 382.43,588.45 382.87,586.00
             383.45,582.77 388.56,578.54 391.00,576.42
             391.00,576.42 408.00,561.01 408.00,561.01
             409.53,559.52 414.12,555.57 414.83,553.89
             417.08,548.57 404.65,550.00 402.00,550.00
             386.33,550.02 385.90,557.90 374.00,567.00
             373.89,561.43 376.78,557.03 378.95,552.00
             382.29,544.23 388.17,531.80 390.00,524.00
             385.31,522.67 382.78,522.99 378.00,523.00
             375.70,523.00 372.26,522.79 370.27,524.02
             366.99,526.05 362.27,538.96 360.58,543.00
             360.58,543.00 341.83,586.00 341.83,586.00
             339.01,592.28 332.24,607.09 331.00,613.00 Z
           M 400.00,615.00
           C 406.62,613.81 406.47,614.04 413.00,614.00
             415.15,613.98 417.88,614.11 419.78,612.98
             422.94,611.09 427.46,599.76 429.00,596.00
             429.00,596.00 446.06,558.00 446.06,558.00
             447.82,554.29 450.46,545.94 453.39,543.60
             457.77,540.09 467.31,544.12 467.94,552.00
             468.60,560.25 458.44,577.60 454.91,586.00
             454.91,586.00 443.00,613.00 443.00,613.00
             448.14,614.46 453.69,614.09 459.00,614.00
             467.58,613.84 468.07,608.24 471.20,601.00
             471.20,601.00 489.47,559.00 489.47,559.00
             489.47,559.00 491.39,553.00 491.39,553.00
             492.25,549.26 491.24,545.82 493.55,543.60
             497.78,539.52 513.37,543.00 513.75,553.00
             513.86,555.90 511.19,561.22 509.93,564.00
             509.93,564.00 500.32,585.00 500.32,585.00
             500.32,585.00 488.00,613.00 488.00,613.00
             492.89,614.39 496.97,614.01 502.00,614.00
             504.32,614.00 507.72,614.21 509.74,612.98
             512.82,611.09 517.36,598.84 519.00,595.00
             519.00,595.00 528.38,573.00 528.38,573.00
             534.14,560.17 541.50,547.57 532.89,534.00
             524.94,521.47 512.75,522.94 500.00,523.00
             491.94,523.04 491.08,523.55 488.00,531.00
             482.98,528.42 478.63,524.75 473.00,523.23
             473.00,523.23 446.00,523.23 446.00,523.23
             435.89,523.02 438.19,523.86 431.94,537.00
             431.94,537.00 415.58,574.00 415.58,574.00
             415.58,574.00 403.63,601.00 403.63,601.00
             401.34,606.05 398.79,609.39 400.00,615.00 Z
           M 134.00,596.00
           C 134.00,596.00 136.00,588.20 136.00,588.20
             133.03,588.00 119.45,587.52 117.68,588.20
             114.89,589.79 114.14,593.76 111.75,594.83
             110.92,595.20 110.12,595.23 109.16,594.83
             105.64,593.05 108.00,586.71 109.16,584.00
             109.16,584.00 120.40,557.00 120.40,557.00
             122.05,553.41 123.90,547.92 127.13,545.60
             129.55,543.86 143.50,542.02 147.00,542.00
             151.81,541.98 164.18,541.60 166.94,546.30
             169.07,549.93 164.16,559.34 162.54,563.00
             162.54,563.00 154.05,582.00 154.05,582.00
             152.49,585.54 149.69,591.77 146.66,594.11
             143.11,596.87 138.14,597.09 134.00,596.00 Z
           M 584.00,640.00
           C 593.58,638.28 597.03,639.58 599.98,639.15
             605.02,638.41 606.29,633.03 608.05,629.00
             609.66,625.34 613.51,616.11 617.13,614.60
             618.85,613.88 622.09,614.00 624.00,614.00
             638.24,613.97 649.67,616.13 660.10,603.83
             662.59,600.89 664.56,597.50 666.14,594.00
             671.08,583.03 681.10,561.85 667.90,552.74
             663.81,549.91 651.24,550.01 646.00,550.00
             646.00,550.00 630.00,550.00 630.00,550.00
             627.31,550.01 623.87,549.63 621.76,551.60
             620.13,553.13 617.84,558.74 616.83,561.00
             616.83,561.00 606.72,584.00 606.72,584.00
             605.22,587.27 602.47,594.24 598.91,595.15
             597.65,595.74 596.31,595.60 595.11,595.15
             590.62,592.46 593.55,587.37 595.11,584.00
             595.11,584.00 606.32,560.00 606.32,560.00
             607.37,557.70 609.68,552.94 607.96,550.60
             606.51,548.63 602.21,549.00 600.00,549.00
             584.19,548.97 556.46,546.27 544.62,558.26
             538.30,564.66 537.04,571.27 533.67,579.00
             531.67,583.58 529.08,588.97 528.41,594.00
             528.02,596.99 528.89,599.28 530.02,602.00
             533.69,610.83 540.86,613.89 550.00,614.00
             553.49,614.04 557.71,614.25 560.99,613.03
             567.88,610.48 567.90,605.20 571.21,605.20
             574.57,605.20 577.41,611.03 585.00,613.37
             586.70,613.89 589.91,614.09 591.07,615.43
             592.59,617.20 590.18,621.16 589.38,623.00
             586.91,628.65 582.65,633.75 584.00,640.00 Z
           M 217.00,551.00
           C 213.24,550.02 199.45,550.02 196.41,552.02
             193.81,553.75 189.70,564.63 188.09,568.00
             186.01,572.38 177.57,592.25 177.25,596.00
             176.67,602.84 182.57,611.12 189.00,613.30
             191.43,614.12 194.44,614.00 197.00,614.00
             197.00,614.00 223.00,614.00 223.00,614.00
             225.62,613.99 229.18,614.37 231.19,612.40
             232.35,611.26 236.18,602.21 237.22,600.00
             237.22,600.00 250.99,569.00 250.99,569.00
             252.44,565.92 258.91,554.34 256.93,551.64
             255.75,550.04 248.30,550.82 246.00,550.74
             235.10,550.40 235.69,554.00 231.77,563.00
             231.77,563.00 224.20,580.00 224.20,580.00
             222.94,583.24 219.89,591.36 217.59,593.57
             214.36,596.67 200.90,597.82 200.07,591.89
             199.81,590.10 201.48,586.73 202.19,585.00
             202.19,585.00 209.11,569.00 209.11,569.00
             209.11,569.00 217.00,551.00 217.00,551.00 Z
           M 289.00,551.00
           C 289.00,551.00 288.00,550.00 288.00,550.00
             281.38,551.19 281.53,550.96 275.00,551.00
             265.80,551.06 265.56,554.91 262.04,563.00
             262.04,563.00 247.61,596.00 247.61,596.00
             246.56,598.47 241.52,609.09 241.61,610.85
             241.78,614.42 246.51,613.98 249.00,614.00
             249.00,614.00 254.00,614.00 254.00,614.00
             263.23,613.87 262.26,611.31 267.58,600.00
             267.58,600.00 289.00,551.00 289.00,551.00 Z
           M 329.00,550.49
           C 329.00,550.49 309.00,551.39 309.00,551.39
             301.38,553.01 294.61,559.47 290.78,566.00
             288.04,570.69 280.16,590.96 280.06,596.00
             279.87,606.07 286.92,613.86 297.00,614.00
             301.21,614.05 316.92,614.69 319.78,612.98
             322.35,611.44 328.61,599.38 326.16,596.99
             324.87,595.75 320.74,596.00 319.00,596.00
             314.49,595.99 304.19,597.43 302.62,591.94
             301.62,588.44 306.27,578.10 308.27,575.04
             314.50,565.52 324.16,568.07 334.00,568.00
             336.02,567.99 338.79,568.14 340.53,566.98
             342.71,565.51 343.98,561.38 345.09,559.00
             345.84,557.39 347.90,553.97 347.72,552.30
             347.49,550.26 345.48,550.39 343.96,550.49
             343.96,550.49 329.00,550.49 329.00,550.49 Z
           M 579.00,568.91
           C 577.49,576.20 574.92,580.38 572.68,587.00
             572.01,588.96 570.91,593.82 569.41,594.98
             567.53,596.43 560.55,596.02 558.00,596.00
             556.18,595.99 553.07,596.15 551.60,594.98
             547.00,591.34 553.70,576.57 556.55,573.05
             561.63,566.78 565.50,568.82 570.00,568.91
             574.36,568.82 574.03,568.02 579.00,568.91 Z
           M 624.00,595.00
           C 624.95,589.76 626.45,586.70 628.83,582.00
             630.38,578.92 633.09,571.62 635.41,569.74
             637.84,567.77 647.93,567.07 650.40,569.02
             651.67,570.03 651.82,571.52 651.94,573.02
             652.29,577.14 651.35,580.23 649.84,584.00
             644.94,596.23 636.04,597.93 624.00,595.00 Z" />
</svg>
