<?xml version="1.0" encoding="UTF-8" standalone="no"?>
<!DOCTYPE svg PUBLIC "-//W3C//DTD SVG 20010904//EN"
              "http://www.w3.org/TR/2001/REC-SVG-20010904/DTD/svg10.dtd">

<svg xmlns="http://www.w3.org/2000/svg"
     width="4.51639mm" height="4.51639mm"
     viewBox="0 0 512 512">
  <path id="Selection"
        fill="white" stroke="white" stroke-width="1"
        d="M 251.00,176.00
           C 234.94,176.00 214.73,172.26 199.00,168.65
             145.86,156.46 96.49,128.49 58.00,90.00
             50.37,82.37 43.55,75.69 37.00,67.00
             37.00,67.00 35.00,67.00 35.00,67.00
             15.08,101.99 16.51,146.73 39.35,180.00
             45.57,189.07 56.21,200.96 66.00,206.00
             55.52,206.43 44.74,203.66 35.00,199.94
             28.94,197.62 26.87,195.61 20.00,194.00
             20.00,233.02 38.78,267.72 73.00,287.28
             80.98,291.84 92.81,297.17 102.00,298.00
             102.00,298.00 78.00,301.82 78.00,301.82
             78.00,301.82 57.00,300.00 57.00,300.00
             63.94,330.40 92.34,357.14 121.00,367.56
             133.38,372.07 140.93,371.84 153.00,374.00
             138.93,383.47 127.66,391.52 112.00,398.69
             88.58,409.42 59.79,416.70 34.00,417.00
             34.00,417.00 26.00,417.68 26.00,417.68
             26.00,417.68 0.00,416.00 0.00,416.00
             2.32,419.68 6.31,421.39 10.00,423.60
             10.00,423.60 32.00,435.25 32.00,435.25
             61.33,449.88 93.59,458.30 126.00,462.28
             126.00,462.28 144.00,464.00 144.00,464.00
             144.00,464.00 177.00,464.00 177.00,464.00
             177.00,464.00 189.00,463.09 189.00,463.09
             223.41,460.68 257.61,452.10 289.00,437.69
             364.94,402.82 418.80,337.62 445.00,259.00
             452.40,236.80 457.38,213.33 459.09,190.00
             459.09,190.00 460.00,180.00 460.00,180.00
             460.00,180.00 460.00,160.00 460.00,160.00
             460.01,158.14 459.95,155.75 460.60,154.00
             462.45,149.03 472.72,142.65 477.00,138.83
             486.51,130.34 507.51,108.54 512.00,97.00
             512.00,97.00 485.00,106.28 485.00,106.28
             485.00,106.28 455.00,113.00 455.00,113.00
             472.77,99.23 481.95,91.59 492.25,71.00
             495.16,65.17 496.99,61.55 498.00,55.00
             498.00,55.00 480.00,64.22 480.00,64.22
             470.90,68.52 461.54,71.85 452.00,75.00
             448.97,76.00 435.66,79.87 433.17,79.82
             429.70,79.74 426.48,75.39 424.00,73.17
             419.51,69.16 411.35,63.62 406.00,60.78
             384.28,49.25 371.06,47.72 347.00,48.00
             305.35,48.49 265.52,81.84 253.72,121.00
             249.84,133.89 248.85,143.65 249.00,157.00
             249.00,157.00 251.00,176.00 251.00,176.00 Z" />
</svg>
