<?xml version="1.0" encoding="UTF-8" standalone="no"?>
<!DOCTYPE svg PUBLIC "-//W3C//DTD SVG 20010904//EN"
              "http://www.w3.org/TR/2001/REC-SVG-20010904/DTD/svg10.dtd">

<svg xmlns="http://www.w3.org/2000/svg"
     width="361.199mm" height="361.199mm"
     viewBox="0 0 1024 1024">
  <path id="Selection"
        fill="white" stroke="white" stroke-width="1"
        d="M 302.07,723.00
           C 300.37,732.09 300.84,736.02 302.07,745.00
             310.17,800.98 375.32,826.27 421.00,795.64
             432.27,788.08 439.71,779.08 445.75,767.00
             448.33,761.85 449.29,759.55 450.85,754.00
             451.53,751.57 452.01,748.50 454.30,747.02
             456.21,745.79 459.76,746.00 462.00,746.00
             462.00,746.00 529.00,746.00 529.00,746.00
             537.59,746.00 556.64,746.79 564.00,745.00
             564.00,745.00 569.45,762.00 569.45,762.00
             576.51,779.43 590.70,794.57 608.00,802.13
             647.11,819.20 694.67,802.72 710.80,762.00
             714.19,753.44 715.99,746.23 716.00,737.00
             716.01,729.51 716.32,725.53 714.91,718.00
             714.47,715.68 712.65,710.48 713.46,708.53
             714.36,706.35 719.86,703.65 722.00,702.32
             722.00,702.32 743.00,688.29 743.00,688.29
             762.90,674.05 782.81,655.70 798.56,637.00
             837.46,590.82 859.41,535.29 862.04,475.00
             862.04,475.00 863.00,462.00 863.00,462.00
             863.00,462.00 863.00,458.00 863.00,458.00
             863.00,458.00 861.96,448.00 861.96,448.00
             861.96,448.00 861.96,439.00 861.96,439.00
             859.39,413.36 853.92,387.99 844.40,364.00
             833.75,337.15 819.67,313.67 801.79,291.00
             759.09,236.86 694.55,198.26 628.00,181.63
             611.20,177.43 584.06,172.20 567.00,172.00
             567.00,172.00 542.00,171.00 542.00,171.00
             542.00,171.00 530.00,171.96 530.00,171.96
             462.63,174.89 396.26,198.87 342.00,238.88
             289.75,277.42 248.13,334.23 236.42,399.00
             232.39,421.34 230.67,444.39 229.09,467.00
             227.70,486.86 225.78,509.25 218.77,528.00
             214.28,540.03 208.37,549.50 196.00,554.55
             178.14,561.84 156.35,552.69 142.10,574.00
             140.25,576.77 138.22,580.82 137.22,584.00
             136.11,587.50 134.92,593.37 135.18,597.00
             136.63,616.91 153.65,632.65 167.00,646.00
             193.26,672.26 220.40,689.92 254.00,705.31
             266.76,711.15 288.57,720.29 302.07,723.00 Z
           M 173.00,595.00
           C 173.00,595.00 180.00,595.00 180.00,595.00
             221.07,594.94 246.42,568.82 257.14,531.00
             272.85,475.54 261.50,421.97 285.43,366.00
             316.40,293.57 387.60,241.81 462.00,220.58
             480.02,215.44 508.47,209.22 527.00,209.00
             527.00,209.00 545.00,208.00 545.00,208.00
             545.00,208.00 565.00,209.00 565.00,209.00
             585.40,209.24 619.46,216.82 639.00,223.33
             718.08,249.69 786.83,308.55 813.65,389.00
             829.97,437.96 828.20,488.08 812.98,537.00
             805.42,561.29 792.49,583.85 777.12,604.00
             760.32,626.02 737.02,647.58 714.00,663.00
             714.00,663.00 698.00,673.20 698.00,673.20
             695.61,674.61 692.92,676.63 690.00,675.79
             690.00,675.79 676.00,666.86 676.00,666.86
             666.92,661.86 654.40,658.13 644.00,658.00
             624.61,657.78 605.64,662.63 591.00,676.09
             584.22,682.33 579.64,687.22 574.69,695.00
             573.01,697.65 569.41,705.76 567.59,706.98
             565.21,708.56 555.15,709.00 552.00,709.00
             552.00,709.00 463.00,709.00 463.00,709.00
             459.88,709.00 452.12,708.91 449.70,707.02
             448.22,705.87 444.94,698.34 443.55,696.00
             439.74,689.60 435.37,684.19 430.00,679.04
             414.13,663.81 395.61,657.75 374.00,658.00
             359.18,658.18 343.81,664.45 332.00,673.16
             328.17,675.98 317.68,687.09 314.91,687.59
             312.17,688.09 305.83,685.61 303.00,684.67
             303.00,684.67 277.00,674.85 277.00,674.85
             246.31,661.67 218.72,644.72 195.00,621.00
             188.19,614.19 176.72,603.71 173.00,595.00 Z
           M 631.00,344.46
           C 624.35,345.94 619.29,347.67 614.00,352.21
             588.55,374.07 602.44,413.95 636.00,415.91
             639.93,416.14 645.28,415.19 649.00,413.90
             680.74,402.92 681.77,357.15 650.00,346.10
             643.90,343.98 637.36,343.58 631.00,344.46 Z
           M 454.00,350.52
           C 442.62,353.57 434.42,359.05 429.32,370.00
             418.68,392.88 434.00,420.69 460.00,421.00
             466.70,421.07 471.72,420.94 478.00,418.10
             498.38,408.85 504.94,380.22 490.67,363.00
             481.23,351.60 468.21,348.27 454.00,350.52 Z
           M 435.00,460.53
           C 421.10,464.86 419.95,475.58 422.45,488.00
             426.41,507.69 437.16,525.66 451.09,539.96
             474.21,563.70 507.38,576.81 540.00,579.09
             540.00,579.09 549.00,579.98 549.00,579.98
             553.89,580.08 554.70,579.58 559.00,579.00
             559.00,579.00 567.00,579.00 567.00,579.00
             575.01,578.06 583.19,576.48 591.00,574.53
             624.47,566.16 657.02,544.74 673.69,514.00
             680.93,500.66 692.19,477.01 673.00,467.92
             670.50,466.73 667.77,466.08 665.00,466.08
             648.33,466.08 648.20,479.82 643.10,491.00
             639.92,497.97 634.33,505.54 628.99,511.00
             604.31,536.18 566.44,546.96 532.00,540.92
             507.19,536.57 483.50,522.82 469.04,502.00
             465.12,496.36 462.78,491.50 460.67,485.00
             460.67,485.00 457.03,471.00 457.03,471.00
             452.80,461.56 444.53,458.96 435.00,460.53 Z
           M 376.00,708.30
           C 407.57,705.86 405.77,759.10 377.00,756.47
             352.44,754.23 349.16,713.57 376.00,708.30 Z
           M 639.00,708.31
           C 667.68,706.68 670.17,753.26 643.00,756.30
             629.78,757.77 620.54,746.36 620.04,734.00
             619.52,721.09 625.85,710.80 639.00,708.31 Z" />
</svg>
