<?xml version="1.0" standalone="no"?>
<!DOCTYPE svg PUBLIC "-//W3C//DTD SVG 20010904//EN"
 "http://www.w3.org/TR/2001/REC-SVG-20010904/DTD/svg10.dtd">
<svg version="1.0" xmlns="http://www.w3.org/2000/svg"
 width="568.000000pt" height="568.000000pt" viewBox="0 0 568.000000 568.000000"
 preserveAspectRatio="xMidYMid meet">
<metadata>
Created by potrace 1.11, written by Peter Selinger 2001-2013
</metadata>
<g transform="translate(0.000000,568.000000) scale(0.100000,-0.100000)"
fill="#000000" stroke="none">
<path d="M2760 5653 c-351 -16 -594 -65 -910 -183 -108 -40 -357 -164 -439
-218 -34 -23 -65 -42 -68 -42 -3 0 -37 -23 -77 -52 -363 -264 -622 -548 -830
-912 -55 -97 -124 -242 -170 -358 -98 -248 -138 -405 -177 -690 -28 -207 -24
-579 9 -783 36 -222 89 -425 146 -564 14 -36 26 -69 26 -74 0 -25 186 -378
255 -481 287 -436 665 -768 1126 -990 253 -122 510 -201 809 -247 190 -30 569
-33 750 -6 505 76 922 250 1315 547 207 156 431 385 568 580 242 344 366 619
471 1040 45 185 70 459 63 698 -8 301 -52 552 -144 832 -49 147 -164 401 -235
520 -19 30 -42 70 -53 89 -47 79 -182 257 -276 362 -133 151 -302 304 -449
409 -66 47 -235 156 -265 172 -149 76 -239 120 -290 141 -270 112 -589 188
-845 201 -214 12 -245 12 -310 9z m-87 -50 c-7 -2 -21 -2 -30 0 -10 3 -4 5 12
5 17 0 24 -2 18 -5z m385 0 c-10 -2 -26 -2 -35 0 -10 3 -2 5 17 5 19 0 27 -2
18 -5z m-481 -9 c-3 -3 -12 -4 -19 -1 -8 3 -5 6 6 6 11 1 17 -2 13 -5z m303
-122 c7 -20 20 -53 28 -72 l15 -35 33 73 c33 72 39 77 82 66 22 -6 23 -8 20
-143 l-3 -136 -34 1 -35 0 2 60 c2 57 2 58 -11 29 -8 -16 -19 -42 -25 -57 -8
-20 -19 -28 -36 -28 -22 0 -27 8 -43 58 l-18 57 -5 -55 -5 -55 -39 -3 c-31 -3
-38 0 -33 12 3 8 9 66 12 128 4 62 8 118 10 125 2 6 19 11 38 11 30 0 35 -4
47 -36z m438 -4 c5 -7 15 -51 21 -98 5 -47 13 -107 17 -133 l7 -48 -34 3 c-31
3 -35 7 -43 46 -7 31 -14 42 -27 42 -11 0 -22 1 -25 3 -4 1 -14 -11 -23 -28
-30 -54 -32 -58 -44 -46 -7 7 -14 7 -24 0 -29 -24 -25 23 7 84 79 153 103 187
131 187 15 0 31 -6 37 -12z m221 -39 c18 -6 30 -16 28 -23 -9 -23 -46 -152
-58 -198 -8 -35 -16 -48 -29 -48 -30 0 -50 11 -50 27 0 12 72 253 76 253 0 0
15 -5 33 -11z m-1405 -50 c24 -11 46 -63 32 -76 -3 -3 7 -21 23 -39 26 -29 28
-37 21 -71 -12 -51 -41 -73 -97 -73 -58 0 -96 35 -92 83 2 19 -4 43 -14 57
-32 45 -20 95 27 116 39 16 68 17 100 3z m1602 -16 c7 -8 18 -44 25 -81 11
-61 13 -64 23 -42 6 14 15 28 21 32 5 4 7 8 2 8 -4 0 0 14 8 31 14 26 20 30
43 24 36 -9 37 -11 22 -42 -7 -16 -13 -31 -12 -35 1 -5 -2 -8 -6 -8 -5 0 -9
-6 -9 -12 0 -7 -11 -38 -25 -68 -14 -30 -28 -65 -32 -77 -8 -24 -31 -29 -56
-13 -8 5 -21 44 -30 92 l-16 83 -23 -67 c-19 -56 -26 -68 -44 -68 -46 0 -50
12 -26 81 12 35 32 88 45 117 13 29 24 57 24 62 0 14 52 1 66 -17z m-1192 -29
c4 -15 6 -28 4 -29 -7 -7 -113 -23 -120 -18 -5 2 -8 17 -8 33 0 27 3 29 48 33
26 2 52 4 58 5 7 1 15 -10 18 -24z m1473 -64 c31 -16 63 -30 70 -30 7 0 13 -4
13 -9 0 -5 14 -12 30 -16 35 -8 36 -12 11 -44 -17 -23 -19 -23 -50 -6 -18 9
-34 15 -35 13 -21 -30 -95 -172 -92 -177 2 -3 -9 -6 -24 -6 -15 0 -26 3 -23 8
2 4 0 7 -4 7 -5 0 -14 9 -21 20 -7 12 -8 19 -2 18 6 -2 18 11 28 27 9 17 29
52 45 79 28 47 28 50 11 63 -10 7 -24 13 -31 13 -7 0 -13 7 -13 16 0 16 17 54
25 54 2 0 30 -13 62 -30z m-2260 -25 c11 -24 9 -27 -29 -42 -22 -9 -36 -19
-31 -22 8 -6 69 -104 92 -149 13 -25 -1 -55 -29 -59 -15 -3 -56 57 -97 139
-19 40 -29 44 -67 27 -20 -9 -28 -9 -40 4 -9 9 -16 20 -16 26 0 12 166 99 190
100 8 1 20 -11 27 -24z m1061 -42 c-10 -2 -26 -2 -35 0 -10 3 -2 5 17 5 19 0
27 -2 18 -5z m115 0 c-13 -2 -35 -2 -50 0 -16 2 -5 4 22 4 28 0 40 -2 28 -4z
m-368 -13 c3 -5 2 -10 -4 -10 -5 0 -18 -3 -28 -7 -16 -6 -16 -5 -4 10 15 19
27 22 36 7z m40 0 c3 -5 -1 -10 -10 -10 -9 0 -13 5 -10 10 3 6 8 10 10 10 2 0
7 -4 10 -10z m108 3 c-13 -2 -33 -2 -45 0 -13 2 -3 4 22 4 25 0 35 -2 23 -4z
m350 0 c-13 -2 -33 -2 -45 0 -13 2 -3 4 22 4 25 0 35 -2 23 -4z m74 -9 c-3 -3
-12 -4 -19 -1 -8 3 -5 6 6 6 11 1 17 -2 13 -5z m63 -4 c0 -5 -4 -10 -9 -10 -6
0 -13 5 -16 10 -3 6 1 10 9 10 9 0 16 -4 16 -10z m-693 -6 c-3 -3 -12 -4 -19
-1 -8 3 -5 6 6 6 11 1 17 -2 13 -5z m740 0 c-3 -3 -12 -4 -19 -1 -8 3 -5 6 6
6 11 1 17 -2 13 -5z m-807 -14 c-14 -4 -34 -8 -45 -8 -16 0 -15 2 5 8 14 4 34
8 45 8 16 0 15 -2 -5 -8z m930 -12 c0 -5 -12 -5 -27 -2 -40 10 -42 15 -5 12
18 -1 32 -6 32 -10z m934 -25 c33 -20 63 -38 65 -40 7 -5 -18 -53 -28 -53 -6
0 -27 11 -47 25 -35 23 -38 24 -50 8 -11 -15 -10 -19 7 -27 10 -5 19 -13 19
-18 0 -4 6 -8 14 -8 24 0 27 -16 8 -39 l-17 -21 -39 21 c-39 20 -40 20 -53 3
-12 -17 -11 -21 8 -34 13 -8 32 -23 43 -32 l21 -17 -22 -22 -21 -22 -49 30
c-27 17 -59 34 -71 37 -12 4 -22 10 -21 14 2 20 150 232 161 232 6 0 38 -17
72 -37z m-1964 23 c0 -2 -7 -6 -15 -10 -8 -3 -15 -1 -15 4 0 6 7 10 15 10 8 0
15 -2 15 -4z m-826 -22 c11 -30 6 -42 -21 -47 -41 -8 -65 -30 -66 -58 -1 -38
6 -53 33 -71 37 -26 86 -23 117 8 24 24 26 24 44 8 27 -24 23 -45 -13 -73 -23
-18 -46 -26 -87 -28 -65 -4 -92 7 -133 58 -23 29 -30 47 -30 82 0 54 18 83 70
114 43 27 77 29 86 7z m1923 10 c-3 -3 -12 -4 -19 -1 -8 3 -5 6 6 6 11 1 17
-2 13 -5z m38 -4 c-3 -5 -12 -10 -18 -10 -7 0 -6 4 3 10 19 12 23 12 15 0z
m40 -10 c-3 -5 -12 -10 -18 -10 -7 0 -6 4 3 10 19 12 23 12 15 0z m-1310 -10
c-3 -5 -12 -10 -18 -10 -7 0 -6 4 3 10 19 12 23 12 15 0z m892 -5 c143 -16
168 -21 346 -66 283 -71 614 -235 838 -416 187 -151 411 -397 496 -544 11 -20
29 -49 39 -65 l18 -29 -29 25 c-15 14 -67 65 -114 114 -47 50 -95 99 -106 110
-12 12 -94 76 -184 144 -152 114 -172 126 -311 183 l-148 61 -41 -26 c-22 -14
-43 -26 -46 -26 -3 0 -31 -18 -63 -39 -83 -57 -214 -182 -280 -268 -31 -41
-73 -95 -93 -121 -21 -26 -77 -89 -127 -139 -67 -70 -96 -93 -115 -93 -14 0
-56 -7 -93 -16 -86 -20 -126 -13 -239 41 -49 24 -126 57 -170 74 -80 31 -141
76 -279 204 -47 43 -162 107 -255 141 -20 8 -103 43 -186 80 -82 36 -161 66
-175 66 -14 0 -62 -7 -108 -15 -89 -16 -81 -11 -337 -210 -29 -22 -86 -66
-128 -98 -43 -32 -77 -62 -77 -66 0 -5 -10 -19 -23 -33 -13 -14 -95 -105 -183
-204 -203 -227 -217 -242 -211 -224 40 123 175 366 307 554 73 105 260 296
391 402 79 63 234 174 245 174 3 0 18 9 33 19 51 37 251 131 369 175 136 51
351 106 472 122 209 27 382 30 567 9z m453 5 c-8 -5 -19 -10 -25 -10 -5 0 -3
5 5 10 8 5 20 10 25 10 6 0 3 -5 -5 -10z m-1436 -34 c-50 -22 -82 -27 -39 -7
22 11 47 20 55 20 8 0 1 -6 -16 -13z m1566 -16 c0 -5 -7 -7 -15 -4 -8 4 -15 8
-15 10 0 2 7 4 15 4 8 0 15 -4 15 -10z m-1675 -25 c-16 -8 -37 -14 -45 -14 -8
0 1 7 20 14 46 18 64 17 25 0z m-70 -25 c-3 -5 -12 -10 -18 -10 -7 0 -6 4 3
10 19 12 23 12 15 0z m2554 -11 c23 -21 23 -42 4 -144 -5 -30 -5 -30 43 18 27
26 51 47 54 47 3 0 15 -8 28 -18 l23 -18 -101 -104 -100 -105 -21 22 c-22 21
-22 23 -7 97 8 42 13 76 10 76 -8 0 -72 -71 -72 -81 0 -16 -19 -19 -44 -8 -14
7 -26 16 -26 21 0 14 169 218 181 218 3 0 15 -9 28 -21z m-2589 -3 c0 -2 -7
-7 -16 -10 -8 -3 -12 -2 -9 4 6 10 25 14 25 6z m1956 -11 c10 -8 15 -14 9 -14
-5 0 -19 6 -29 14 -11 8 -15 15 -10 15 6 0 19 -7 30 -15z m-2559 -85 c36 -38
74 -81 85 -95 11 -14 24 -23 29 -20 19 13 -3 -21 -26 -38 -24 -17 -24 -17 -67
29 -24 26 -66 72 -95 103 -48 52 -51 57 -36 73 9 10 23 18 31 18 7 0 43 -31
79 -70z m538 60 c-3 -5 -11 -10 -16 -10 -6 0 -7 5 -4 10 3 6 11 10 16 10 6 0
7 -4 4 -10z m2141 -36 c18 -14 18 -14 -6 -3 -31 14 -36 19 -24 19 6 0 19 -7
30 -16z m-2216 1 c0 -2 -10 -10 -22 -16 -21 -11 -22 -11 -9 4 13 16 31 23 31
12z m2260 -25 c0 -5 -2 -10 -4 -10 -3 0 -8 5 -11 10 -3 6 -1 10 4 10 6 0 11
-4 11 -10z m-2320 -4 c0 -2 -29 -22 -65 -45 -36 -22 -65 -36 -65 -31 0 6 5 10
11 10 5 0 7 5 3 12 -4 6 -3 8 4 4 6 -3 32 7 58 24 49 30 54 33 54 26z m2374
-5 c3 -5 -1 -11 -9 -14 -9 -4 -12 -1 -8 9 6 16 10 17 17 5z m26 -43 c0 -6 -6
-5 -15 2 -8 7 -15 14 -15 16 0 2 7 1 15 -2 8 -4 15 -11 15 -16z m-2951 -24
c17 -14 29 -29 27 -33 -9 -15 26 -42 108 -85 l28 -14 -20 -18 c-12 -10 -18
-22 -15 -27 8 -13 -35 1 -73 24 -31 19 -64 25 -64 12 0 -3 16 -20 35 -38 38
-33 39 -57 6 -75 -13 -6 -25 -2 -47 18 -16 15 -59 53 -96 86 -38 32 -68 65
-68 73 0 19 60 80 91 92 39 16 55 13 88 -15z m2981 16 c0 -5 -5 -10 -11 -10
-5 0 -7 5 -4 10 3 6 8 10 11 10 2 0 4 -4 4 -10z m-2597 -55 c-56 -38 -73 -46
-73 -36 0 6 7 11 15 11 8 0 15 5 15 10 0 6 7 10 15 10 9 0 18 7 21 15 4 8 10
12 16 9 5 -3 1 -12 -9 -19z m2694 -15 c29 -23 58 -38 63 -35 6 3 7 -1 4 -9 -5
-13 -14 -9 -49 19 -23 19 -47 35 -52 35 -6 0 -16 7 -23 15 -22 27 2 16 57 -25z
m567 -29 c16 -17 15 -21 -9 -72 -23 -49 -103 -181 -120 -197 -3 -4 -11 1 -16
11 -6 9 -14 15 -19 12 -20 -12 -20 18 1 54 20 37 21 41 5 56 -15 16 -20 16
-55 2 -34 -14 -41 -14 -60 -1 -11 8 -21 21 -21 28 0 8 48 34 108 60 59 25 114
50 122 56 24 14 46 11 64 -9z m-3354 -26 c-7 -8 -17 -15 -23 -15 -6 0 -2 7 9
15 25 19 30 19 14 0z m2900 -30 c19 -14 30 -25 24 -25 -10 0 -73 49 -63 50 3
0 20 -11 39 -25z m-2941 2 c-2 -1 -38 -31 -79 -66 l-75 -63 75 70 c41 39 77
69 79 66 2 -2 2 -5 0 -7z m-466 -15 c14 -16 14 -19 -3 -42 -11 -14 -20 -28
-20 -32 0 -6 109 -92 164 -130 6 -4 -1 -17 -18 -32 l-29 -24 -61 49 c-109 88
-103 86 -131 55 -20 -22 -26 -24 -49 -13 -14 7 -26 14 -26 17 0 8 40 59 73 94
16 16 35 40 44 53 18 28 34 29 56 5z m3467 -42 c0 -5 -2 -10 -4 -10 -3 0 -8 5
-11 10 -3 6 -1 10 4 10 6 0 11 -4 11 -10z m35 -20 c-3 -5 -1 -10 4 -10 6 0 11
-5 11 -11 0 -8 -5 -8 -15 1 -13 11 -12 30 1 30 3 0 2 -4 -1 -10z m-348 -79
c78 -35 164 -83 214 -119 95 -69 214 -155 244 -176 21 -15 17 -31 -24 -85
l-18 -24 -68 22 c-84 26 -98 26 -91 4 2 -10 8 -33 11 -52 6 -29 5 -33 -10 -27
-36 14 -75 54 -121 128 -27 43 -52 78 -56 78 -3 0 -18 -14 -32 -31 -24 -28
-26 -38 -26 -119 0 -49 -4 -91 -9 -94 -11 -7 -44 30 -68 76 -27 51 -95 138
-104 133 -3 -3 -23 -51 -44 -107 -21 -57 -41 -107 -45 -111 -19 -21 -70 92
-70 156 0 15 -5 27 -11 27 -5 0 -37 -18 -70 -40 -53 -37 -236 -107 -247 -95
-9 9 30 90 66 134 49 62 232 247 291 294 47 37 126 83 147 86 6 0 70 -25 141
-58z m408 9 l30 -35 -32 29 c-18 17 -33 34 -33 40 0 5 1 7 3 5 1 -2 16 -20 32
-39z m457 23 c21 -19 23 -36 6 -66 -7 -12 -19 -43 -28 -68 -13 -36 -13 -46 -3
-42 7 3 13 9 13 13 0 4 21 18 46 31 l45 24 20 -24 20 -25 -23 -17 c-13 -10
-34 -24 -48 -31 -14 -7 -56 -32 -93 -56 -47 -30 -73 -41 -85 -36 -9 4 -20 7
-23 6 -8 -1 2 50 12 63 16 21 48 105 40 105 -4 0 -29 -16 -55 -36 l-48 -36
-24 23 c-30 28 -30 30 4 51 15 9 65 44 112 77 47 33 87 61 89 61 3 0 13 -7 23
-17z m-3722 -28 c-7 -8 -16 -15 -21 -15 -5 0 -1 9 8 20 9 11 19 17 21 15 3 -3
-1 -11 -8 -20z m3359 -86 c45 -54 36 -56 -13 -2 -21 24 -35 43 -30 43 5 0 24
-19 43 -41z m-3456 -10 c-24 -22 -43 -43 -43 -48 0 -4 -12 -18 -27 -32 -24
-22 -24 -13 2 20 19 25 97 101 104 101 3 0 -13 -19 -36 -41z m689 26 c18 -8
87 -37 153 -65 66 -28 162 -70 213 -93 l92 -41 0 -42 c0 -24 -5 -46 -10 -49
-6 -4 -42 -1 -81 5 -39 7 -73 10 -76 7 -3 -3 5 -19 17 -34 l22 -28 -81 -5
c-72 -4 -83 -8 -113 -36 -67 -61 -54 -62 -201 12 l-134 67 -107 -51 c-119 -57
-122 -56 -113 24 2 24 1 47 -4 49 -4 3 -28 1 -52 -6 -24 -6 -57 -9 -72 -7 -25
3 -18 11 90 93 64 50 144 111 177 138 32 26 67 47 76 48 9 0 49 7 87 14 39 7
73 14 77 14 4 1 22 -6 40 -14z m-1070 -12 c22 -19 23 -39 4 -46 -8 -3 -20 -15
-26 -27 -9 -16 -8 -22 5 -26 9 -4 23 0 33 8 46 40 115 38 151 -6 17 -20 17
-82 0 -102 -9 -11 -8 -18 2 -31 13 -16 12 -17 -3 -5 -15 12 -21 11 -45 -8
l-28 -22 -23 27 -23 27 30 19 c18 11 31 27 31 39 0 26 -29 26 -63 0 -14 -11
-40 -20 -59 -20 -79 0 -105 83 -47 153 35 42 36 43 61 20z m3979 -177 c6 -12
0 -9 -13 8 -13 16 -38 48 -57 70 -25 31 -22 29 13 -8 26 -27 51 -58 57 -70z
m-3756 -26 c-15 -22 -30 -38 -33 -35 -3 2 8 23 23 45 15 22 30 38 33 35 3 -2
-8 -23 -23 -45z m4161 11 c31 -14 46 -30 63 -66 27 -58 24 -79 -12 -83 -23 -3
-28 1 -33 25 -3 15 -14 39 -25 52 -16 20 -26 23 -60 18 -22 -3 -49 -13 -60
-23 -27 -25 -25 -76 6 -113 l26 -30 -26 -17 c-25 -16 -27 -16 -50 6 -54 51
-58 149 -9 201 47 49 113 60 180 30z m-4306 -151 c0 -6 -4 -10 -9 -10 -5 0
-12 -9 -16 -20 -4 -13 -14 -19 -30 -18 -13 1 -22 4 -20 7 3 2 -26 20 -63 39
-37 19 -74 41 -83 48 -8 8 -22 14 -30 14 -33 1 -41 16 -22 47 l17 31 128 -64
c70 -35 128 -69 128 -74z m3937 125 c0 -8 -4 -12 -9 -9 -4 3 -8 9 -8 15 0 5 4
9 8 9 5 0 9 -7 9 -15z m-2421 -23 c17 -15 51 -44 75 -64 24 -20 66 -57 93 -82
55 -49 59 -52 166 -92 41 -15 109 -45 150 -67 101 -52 158 -60 286 -37 98 17
144 33 144 48 1 8 75 88 110 117 13 11 20 14 16 8 -11 -19 6 -16 129 17 67 19
127 42 153 60 23 17 47 30 52 30 6 0 10 5 10 12 0 31 21 -12 25 -51 2 -23 12
-55 22 -69 9 -15 16 -30 15 -34 -1 -5 5 -8 14 -8 9 0 14 -6 11 -12 -3 -8 5
-14 19 -14 18 -2 26 5 33 30 14 46 63 180 67 185 7 7 51 -49 73 -93 21 -44 61
-96 61 -81 0 5 9 -1 20 -13 42 -45 50 -32 50 91 0 139 9 154 56 92 19 -24 34
-48 34 -54 0 -5 9 -16 20 -24 11 -8 17 -17 13 -20 -3 -4 1 -7 10 -7 9 0 17 -4
17 -10 0 -5 4 -10 10 -10 15 0 50 -33 44 -42 -3 -4 1 -5 9 -2 8 3 18 1 22 -5
3 -6 11 -11 17 -11 11 0 4 82 -9 117 -5 13 -2 15 18 9 13 -4 34 -9 46 -12 12
-2 33 -8 47 -14 22 -8 28 -4 57 38 l33 48 40 -45 c23 -24 40 -49 38 -55 -2 -6
-1 -8 3 -4 4 4 13 2 20 -5 117 -111 215 -213 215 -224 0 -7 5 -13 10 -13 6 0
10 -5 10 -11 0 -11 41 -113 60 -150 17 -32 89 -255 104 -318 12 -51 13 -68 3
-80 -10 -12 -9 -14 6 -8 11 4 17 2 17 -8 0 -13 -98 -15 -752 -15 -942 -1
-1465 -13 -1603 -36 -55 -10 -112 -18 -127 -18 -14 -1 -24 -4 -22 -8 2 -3 -9
-9 -26 -13 -84 -19 -220 -116 -324 -234 -47 -52 -70 -154 -56 -243 6 -38 8
-74 5 -79 -4 -5 -2 -9 4 -9 6 0 8 -6 5 -14 -7 -17 41 -154 63 -178 9 -10 13
-18 9 -18 -3 0 4 -17 17 -37 12 -21 28 -50 35 -65 6 -16 17 -28 23 -28 7 0 8
-12 5 -32 -4 -24 -4 -27 3 -13 8 18 10 16 19 -15 6 -19 11 -29 11 -22 1 6 6
12 12 12 6 0 8 -7 5 -16 -7 -17 29 -94 44 -94 6 0 10 -13 10 -30 0 -21 5 -30
16 -30 10 0 14 -6 10 -15 -3 -9 0 -15 9 -15 8 0 16 -6 16 -12 1 -7 3 -28 5
-45 2 -18 -2 -45 -8 -60 -7 -16 -12 -33 -13 -39 0 -6 -8 -22 -18 -37 -9 -14
-17 -31 -17 -37 0 -6 -12 -3 -26 7 -25 16 -27 16 -40 -1 -15 -22 -88 -107
-127 -150 -17 -19 -26 -39 -24 -51 8 -39 12 -50 20 -56 16 -11 16 -51 0 -85
-9 -19 -20 -34 -24 -34 -3 0 -12 -15 -20 -32 -7 -18 -23 -46 -36 -61 -13 -16
-23 -33 -23 -37 0 -5 -25 -50 -55 -100 -30 -50 -55 -95 -55 -100 0 -6 -4 -10
-9 -10 -5 0 -16 -15 -25 -32 -9 -18 -25 -45 -34 -59 -9 -14 -30 -50 -47 -79
-16 -29 -40 -64 -51 -76 -12 -13 -19 -26 -16 -29 4 -3 1 -10 -7 -14 -15 -10
-61 11 -186 85 -104 61 -256 169 -268 190 -5 8 -11 12 -15 10 -10 -6 -211 188
-289 279 -58 67 -165 209 -189 251 -116 204 -144 255 -144 262 0 6 -15 41 -33
78 -42 86 -101 270 -91 285 4 7 3 9 -2 6 -16 -9 -44 109 -76 318 -17 112 -12
503 7 610 9 50 22 124 30 165 14 82 63 239 80 256 5 6 35 39 65 74 30 35 68
77 84 94 15 17 51 58 80 90 28 33 63 73 78 89 16 17 49 54 75 84 112 128 114
130 178 138 33 5 65 8 72 6 6 -1 14 3 18 9 3 5 12 10 18 10 8 0 11 -21 9 -70
-4 -76 -1 -80 49 -55 16 9 35 13 41 9 6 -4 8 -3 5 3 -4 6 5 14 21 18 15 3 35
14 45 22 9 9 20 14 23 10 3 -3 20 3 36 13 25 15 35 16 55 7 18 -8 20 -13 11
-19 -8 -6 -5 -7 10 -3 15 4 30 1 40 -8 9 -8 38 -23 64 -33 27 -10 48 -22 48
-26 0 -5 9 -8 19 -8 11 0 23 -4 26 -10 12 -19 38 -10 99 36 l61 46 81 -5 81
-6 -3 25 c-1 14 -8 31 -14 39 -11 13 -8 14 21 8 19 -4 52 -8 74 -8 l40 0 -3
48 c-2 26 0 47 5 47 4 0 22 -13 39 -28z m2507 -114 c32 -58 35 -70 7 -35 -11
14 -20 29 -20 35 0 5 -13 27 -28 48 -41 56 -49 75 -16 35 16 -19 41 -56 57
-83z m-3980 4 c-16 -27 -36 -59 -46 -73 -11 -15 -10 -9 4 16 38 69 60 105 65
105 2 0 -8 -22 -23 -48z m-235 -61 c67 -35 95 -121 61 -187 -10 -21 -19 -44
-19 -51 0 -6 -5 -15 -10 -18 -10 -6 -237 69 -252 84 -4 3 -1 28 5 56 8 35 23
62 52 92 36 37 47 43 84 43 23 0 58 -9 79 -19z m4655 -55 c29 -62 42 -116 30
-117 -4 0 -18 -2 -30 -5 -18 -3 -24 4 -35 39 -10 32 -18 42 -35 43 -28 1 -27
6 -4 -48 18 -44 18 -45 0 -56 -32 -20 -45 -14 -58 28 -8 28 -17 40 -31 40 -29
0 -34 -18 -14 -61 18 -42 15 -52 -22 -63 -18 -6 -24 1 -43 46 -12 29 -27 63
-33 75 -6 13 -9 25 -6 28 6 6 237 102 250 104 3 1 18 -23 31 -53z m-364 -21
c0 -5 -6 -1 -14 9 -8 11 -15 24 -15 30 0 5 7 1 15 -10 8 -10 14 -23 14 -29z
m-4139 -6 c-7 -11 -14 -19 -16 -16 -7 7 7 37 17 37 6 0 5 -9 -1 -21z m4199
-119 c0 -16 -48 68 -48 85 -1 6 10 -8 24 -30 13 -22 24 -47 24 -55z m-4254 11
c-30 -60 -41 -68 -18 -13 22 53 34 74 39 69 3 -2 -7 -27 -21 -56z m4296 -86
c5 4 6 -1 2 -10 -5 -13 -7 -14 -14 -3 -5 7 -8 18 -8 23 0 6 3 4 6 -3 2 -6 9
-10 14 -7z m29 -100 c0 -5 -5 -3 -10 5 -5 8 -10 20 -10 25 0 6 5 3 10 -5 5 -8
10 -19 10 -25z m-4423 -41 c-6 -20 -13 -32 -14 -27 -4 11 14 63 21 63 2 0 -1
-16 -7 -36z m4443 6 c0 -11 -2 -20 -4 -20 -2 0 -6 9 -9 20 -3 11 -1 20 4 20 5
0 9 -9 9 -20z m34 -112 c1 -7 5 -19 9 -25 5 -7 4 -13 -1 -13 -11 0 -22 24 -22
47 0 19 10 12 14 -9z m-4511 -8 c-3 -12 -8 -19 -11 -16 -5 6 5 36 12 36 2 0 2
-9 -1 -20z m-18 -47 c-4 -10 -8 -29 -11 -43 -2 -14 -8 -38 -14 -55 -10 -30
-10 -30 -4 5 3 19 7 42 8 50 4 25 17 60 23 60 3 0 2 -8 -2 -17z m4581 -138 c8
-38 14 -74 13 -80 -1 -12 -58 205 -58 220 1 23 32 -76 45 -140z m-4619 -17
c-3 -8 -6 -5 -6 6 -1 11 2 17 5 13 3 -3 4 -12 1 -19z m-7 -28 c0 -5 -5 -10
-11 -10 -5 0 -7 5 -4 10 3 6 8 10 11 10 2 0 4 -4 4 -10z m-8 -42 c-7 -7 -12
-8 -12 -2 0 14 12 26 19 19 2 -3 -1 -11 -7 -17z m-5 -50 c-3 -8 -6 -5 -6 6 -1
11 2 17 5 13 3 -3 4 -12 1 -19z m5040 -10 c-3 -8 -6 -5 -6 6 -1 11 2 17 5 13
3 -3 4 -12 1 -19z m-1267 -22 c0 -10 -16 -17 -45 -22 -52 -7 -75 -1 -75 21 0
12 13 15 60 15 46 0 60 -3 60 -14z m230 -1 c0 -12 -14 -15 -65 -15 -60 0 -75
6 -58 23 3 4 33 7 65 7 45 0 58 -3 58 -15z m225 0 c0 -5 -28 -11 -62 -13 -52
-2 -63 0 -63 13 0 13 11 15 63 13 34 -2 62 -7 62 -13z m223 3 c-3 -9 -25 -13
-63 -13 -38 0 -60 4 -62 13 -4 9 13 12 62 12 49 0 66 -3 63 -12z m152 2 c0 -5
-11 -10 -25 -10 -14 0 -25 5 -25 10 0 6 11 10 25 10 14 0 25 -4 25 -10z
m-4610 -20 c0 -11 -4 -20 -9 -20 -5 0 -7 9 -4 20 3 11 7 20 9 20 2 0 4 -9 4
-20z m3330 5 c0 -12 -13 -15 -60 -15 -47 0 -60 3 -60 15 0 12 13 15 60 15 47
0 60 -3 60 -15z m228 3 c-3 -9 -25 -13 -63 -13 -38 0 -60 4 -62 13 -4 9 13 12
62 12 49 0 66 -3 63 -12z m-452 -9 c11 -18 -17 -29 -73 -29 -39 0 -53 4 -53
14 0 22 113 35 126 15z m-226 -23 c0 -17 -107 -33 -122 -18 -20 20 4 32 63 32
44 0 59 -4 59 -14z m2177 -18 c-3 -7 -5 -2 -5 12 0 14 2 19 5 13 2 -7 2 -19 0
-25z m-2397 8 c0 -13 -48 -26 -102 -26 -34 0 -38 27 -5 33 53 10 107 7 107 -7z
m-230 -30 c0 -8 -19 -18 -44 -25 -62 -15 -76 -14 -76 8 0 20 18 26 88 30 21 1
32 -4 32 -13z m-212 -56 c3 -16 -74 -60 -103 -60 -32 0 -14 36 28 58 47 24 70
24 75 2z m-2232 -58 c-12 -12 -18 8 -10 35 l8 28 4 -28 c2 -16 1 -31 -2 -35z
m4629 -397 c-48 -330 -134 -604 -259 -823 -20 -35 -36 -66 -36 -69 0 -2 -36
-57 -80 -122 -78 -115 -254 -325 -323 -386 -186 -163 -271 -226 -442 -327
-120 -71 -310 -156 -322 -145 -3 3 -9 27 -14 54 -5 26 -18 65 -30 87 -11 21
-25 75 -32 120 -6 45 -15 83 -19 87 -4 3 -11 27 -14 55 -4 27 -11 55 -17 62
-11 13 -46 207 -47 255 0 15 -4 27 -10 27 -5 0 -10 5 -10 11 0 5 5 7 10 4 6
-3 10 0 10 9 0 8 -5 16 -12 18 -7 3 -11 25 -10 63 1 48 -3 64 -19 81 -12 13
-18 27 -14 33 3 6 1 11 -4 11 -6 0 -11 9 -11 19 0 11 -7 26 -15 34 -8 8 -19
35 -26 61 -6 25 -15 46 -20 46 -5 0 -8 3 -7 8 3 15 -15 82 -22 82 -4 0 -11 16
-14 36 -4 19 -13 37 -20 40 -7 3 -19 23 -26 45 -7 21 -19 39 -27 39 -7 0 -13
7 -13 15 0 8 -11 38 -25 67 -14 28 -25 58 -25 65 0 7 -7 13 -15 13 -8 0 -15 8
-15 19 0 10 -10 29 -23 43 -13 14 -29 39 -36 56 -8 19 -18 29 -25 25 -6 -3 -8
-3 -5 1 4 4 -11 40 -32 79 -21 40 -46 88 -55 107 -21 43 -32 150 -15 150 6 0
16 10 22 23 6 13 26 29 45 36 19 7 32 16 29 21 -3 4 1 7 8 7 25 -3 152 15 162
23 11 8 112 17 280 25 55 3 159 9 230 15 72 5 168 12 215 15 47 2 123 8 170
13 88 9 480 17 818 17 120 0 193 4 194 10 1 6 4 -48 6 -120 2 -83 -3 -170 -13
-240z m-2587 269 c-19 -77 -44 -87 -35 -16 7 62 24 99 39 84 7 -7 5 -29 -4
-68z m2669 -11 c-2 -16 -4 -3 -4 27 0 30 2 43 4 28 2 -16 2 -40 0 -55z m-2625
-188 c18 -46 18 -75 0 -75 -14 0 -55 97 -48 115 10 27 27 13 48 -40z m2615
-42 c-3 -10 -5 -2 -5 17 0 19 2 27 5 18 2 -10 2 -26 0 -35z m-10 -65 c-3 -7
-5 -2 -5 12 0 14 2 19 5 13 2 -7 2 -19 0 -25z m-10 -75 c-3 -10 -5 -2 -5 17 0
19 2 27 5 18 2 -10 2 -26 0 -35z m-2499 -26 c26 -61 26 -67 9 -67 -15 0 -69
98 -61 111 13 21 32 5 52 -44z m-2219 -191 c17 -70 14 -93 -15 -113 -25 -16
-28 -16 -56 0 -29 17 -30 16 -61 -13 -38 -36 -43 -37 -51 -8 -4 17 3 32 29 58
47 48 45 60 -9 60 -31 0 -46 5 -50 16 -4 9 -5 18 -3 20 4 5 127 21 168 23 35
1 37 -1 48 -43z m2324 5 c30 -45 38 -76 19 -76 -15 0 -73 95 -65 108 9 14 21
6 46 -32z m2507 19 c0 -6 -11 -21 -25 -34 -27 -25 -33 -56 -12 -56 7 0 21 14
31 30 9 17 27 39 39 50 72 67 138 -51 68 -121 -30 -29 -55 -37 -66 -20 -3 6 8
24 25 41 31 32 36 60 13 67 -7 3 -24 -14 -38 -37 -34 -54 -66 -69 -100 -46
-33 22 -33 65 1 105 25 30 64 42 64 21z m-2391 -229 c22 -45 22 -79 0 -65 -15
9 -59 101 -52 108 15 15 30 3 52 -43z m2284 -48 c-13 -37 -13 -47 -2 -53 18
-12 24 -7 39 39 12 39 32 52 44 32 3 -5 -1 -26 -10 -46 -13 -31 -13 -39 -2
-46 30 -19 42 -6 63 69 6 20 45 33 45 14 0 -14 -41 -127 -49 -135 -5 -5 -39 1
-77 12 -38 11 -81 22 -96 25 l-27 6 20 58 c10 31 21 62 23 69 3 6 14 9 24 6
19 -5 20 -7 5 -50z m-4663 27 c9 -16 7 -20 -12 -25 -180 -45 -187 -45 -188 -9
0 8 134 48 182 53 4 1 12 -8 18 -19z m48 -123 c2 -10 -16 -30 -47 -52 -28 -21
-51 -39 -51 -42 0 -3 31 -3 69 0 69 6 81 1 81 -34 0 -5 -49 -9 -109 -9 -102 0
-110 1 -116 21 -4 11 -5 22 -3 24 33 30 156 114 163 112 5 -2 11 -11 13 -20z
m2411 -61 c15 -62 14 -76 -7 -76 -14 0 -21 13 -30 51 -16 66 -15 69 7 69 14 0
22 -12 30 -44z m2154 -30 c44 -10 137 -47 137 -54 0 -4 -4 -13 -8 -20 -7 -10
-25 -7 -86 13 -43 14 -87 30 -97 35 -22 12 -14 43 10 36 9 -2 29 -7 44 -10z
m-2192 -98 c73 -38 91 -43 149 -43 56 0 77 6 138 36 l72 36 58 -69 c31 -38 59
-74 61 -79 1 -6 -7 -30 -20 -53 l-22 -43 -96 -7 c-53 -3 -284 -6 -513 -6
l-416 0 -31 52 -30 53 36 45 c20 25 49 59 65 76 l28 30 62 -30 c54 -27 73 -31
143 -31 80 0 97 6 232 74 1 1 39 -18 84 -41z m2103 -4 c12 -5 13 -10 5 -26
-13 -25 -10 -28 74 -62 69 -29 75 -34 56 -53 -13 -13 -20 -11 -97 23 -64 29
-64 29 -80 3 -10 -16 -16 -18 -27 -9 -12 10 -10 21 15 71 17 32 32 59 34 59 3
0 11 -3 20 -6z m-4352 -69 c27 -52 27 -55 9 -64 -16 -9 -21 -4 -36 29 -17 39
-37 51 -50 30 -3 -5 1 -23 10 -40 9 -17 13 -35 10 -40 -12 -19 -30 -10 -44 21
-15 35 -37 47 -54 30 -8 -8 -5 -21 10 -50 15 -28 18 -42 10 -50 -6 -6 -14 -11
-18 -11 -11 0 -71 121 -64 129 9 9 158 69 175 70 9 0 27 -23 42 -54z m4317
-165 c44 -22 82 -44 85 -49 11 -17 -20 -30 -79 -33 l-60 -3 42 -25 c43 -25 50
-42 21 -48 -8 -2 -51 19 -95 46 -64 38 -79 52 -72 64 7 13 22 15 76 11 l68 -5
-30 21 c-16 12 -35 21 -42 21 -15 0 -26 17 -18 30 9 15 18 13 104 -30z m-4214
-7 c14 -21 25 -47 25 -59 0 -31 -33 -56 -69 -52 -26 2 -34 -2 -49 -32 -11 -18
-23 -35 -29 -37 -19 -7 -23 26 -8 61 8 20 15 42 15 51 0 14 -4 14 -37 0 -37
-16 -62 -8 -48 14 6 11 152 89 167 91 4 0 19 -17 33 -37z m2550 -32 c-19 -76
-16 -90 51 -250 37 -91 39 -179 4 -216 -47 -50 -96 -67 -220 -76 -120 -8 -176
-18 -272 -45 -53 -16 -61 -16 -110 -1 -81 26 -152 37 -278 47 -129 9 -152 17
-195 68 -27 32 -30 42 -29 101 1 45 9 86 26 131 62 156 65 174 47 240 -3 13
31 16 251 20 140 3 362 5 493 5 l238 0 -6 -24z m1516 -146 c38 -25 72 -52 76
-61 16 -44 -42 -103 -87 -89 -11 3 -43 24 -72 45 -29 22 -57 41 -63 43 -6 2
-5 10 3 20 12 15 20 12 80 -28 52 -35 69 -42 84 -34 18 10 25 39 10 39 -5 0
-34 18 -65 40 -37 27 -54 45 -51 55 4 8 8 15 11 15 2 0 36 -20 74 -45z m-3930
-7 c21 -27 24 -49 7 -66 -21 -21 -38 -13 -38 18 0 21 -5 30 -16 30 -12 0 -14
-8 -8 -45 8 -57 -12 -85 -62 -85 -59 0 -93 59 -59 104 12 15 17 17 29 7 12
-10 13 -17 3 -32 -16 -25 14 -59 36 -41 11 10 12 20 4 52 -9 33 -8 42 8 60 25
27 72 26 96 -2z m109 -128 c10 -7 11 -13 4 -17 -5 -5 -43 -34 -83 -67 -63 -51
-75 -56 -87 -44 -13 12 -4 22 63 76 43 33 80 61 83 61 3 1 12 -4 20 -9z m3685
-30 c29 -18 65 -72 65 -98 0 -5 -9 -21 -21 -36 -16 -20 -29 -26 -61 -26 -35 0
-47 6 -84 44 -50 49 -56 84 -22 116 28 26 81 26 123 0z m-3581 -71 c42 -33 36
-82 -14 -131 -55 -51 -102 -53 -148 -5 l-31 32 51 45 c54 47 99 80 109 80 4 0
18 -9 33 -21z m3375 -68 c20 -13 8 -36 -20 -36 -39 0 -36 -36 6 -74 29 -26 39
-29 56 -21 14 8 18 17 13 35 -5 21 -2 25 15 25 29 0 38 -42 17 -75 -23 -35
-83 -35 -124 0 -37 31 -64 87 -55 112 14 37 60 54 92 34z m-3195 -85 c25 -21
28 -27 17 -40 -11 -14 -16 -13 -41 6 -17 12 -35 18 -46 14 -15 -6 -14 -10 11
-36 21 -22 26 -33 18 -41 -9 -9 -19 -6 -41 9 -26 19 -31 20 -48 7 -18 -14 -18
-16 15 -43 20 -17 31 -34 27 -40 -12 -19 -26 -14 -73 24 l-45 37 73 73 c78 79
76 78 133 30z m1505 -115 c5 -9 10 -43 12 -76 l4 -60 -50 4 c-27 1 -52 5 -54
6 -4 4 17 98 30 132 9 25 44 21 58 -6z m1454 -13 c57 -40 76 -124 35 -152 -30
-21 -56 -20 -95 4 -65 39 -85 141 -33 167 28 14 53 9 93 -19z m-169 -146 c31
-46 54 -88 51 -93 -10 -15 -32 -10 -71 16 -50 34 -56 32 -31 -15 17 -30 19
-42 10 -51 -9 -9 -16 -5 -30 21 -10 18 -35 58 -55 90 -28 45 -34 61 -24 69 9
7 27 1 64 -25 29 -19 52 -32 52 -29 0 3 -12 24 -27 46 -22 33 -24 42 -13 49 8
5 15 8 16 7 1 -1 27 -39 58 -85z m-2437 40 c5 -21 0 -31 -25 -52 -31 -25 -31
-26 -11 -39 20 -12 20 -13 4 -31 -10 -11 -15 -26 -12 -34 7 -18 -22 -31 -37
-16 -5 5 -19 10 -30 10 -11 0 -28 7 -38 17 -34 31 -18 82 32 103 16 7 30 19
30 26 0 8 9 23 19 33 25 25 59 17 68 -17z m1161 -79 l3 -43 -62 0 -61 0 7 37
c10 53 11 54 63 51 l47 -3 3 -42z m1093 -54 c46 -84 50 -99 24 -99 -16 0 -108
174 -98 184 14 14 30 -4 74 -85z m-1980 31 c27 -15 27 -70 -1 -70 -13 0 -20 7
-20 20 0 11 -6 20 -13 20 -27 0 -27 -14 -1 -41 34 -35 30 -84 -8 -112 -25 -18
-30 -19 -54 -7 -32 18 -45 40 -37 68 7 27 33 29 33 3 0 -10 7 -25 16 -32 14
-11 18 -10 30 6 13 18 12 22 -11 38 -17 13 -25 28 -25 50 0 54 44 82 91 57z
m1830 -10 c27 -15 59 -82 59 -124 0 -38 -21 -59 -70 -71 -27 -6 -22 -14 -74
112 -14 34 -26 65 -26 68 0 20 81 31 111 15z m-1655 -119 c-3 -36 -6 -83 -6
-103 0 -27 -4 -38 -15 -38 -8 0 -16 7 -16 15 -1 8 -2 20 -3 27 0 6 -13 15 -29
21 -22 7 -30 5 -45 -12 -10 -13 -22 -18 -29 -13 -9 5 1 26 33 72 60 86 83 110
101 103 13 -5 14 -18 9 -72z m1475 48 c16 -16 20 -29 16 -54 -4 -27 0 -38 24
-61 16 -15 29 -31 29 -35 0 -16 -32 -17 -48 -1 -10 9 -29 26 -42 37 l-23 20 7
-47 c6 -38 4 -48 -7 -48 -16 0 -28 27 -52 115 -21 77 -21 79 7 87 43 12 68 8
89 -13z m-1326 -46 c4 -21 10 -49 14 -63 8 -24 8 -24 15 10 13 61 17 70 32 70
19 0 18 -15 -7 -115 -17 -66 -25 -85 -39 -85 -19 0 -30 27 -30 72 0 45 -17 41
-29 -7 -9 -35 -16 -45 -32 -45 -13 0 -19 5 -16 13 3 7 15 49 27 92 26 93 27
95 45 95 8 0 17 -15 20 -37z m1124 -26 c13 -23 37 -61 52 -85 34 -51 34 -50
12 -54 -10 -2 -25 5 -33 15 -21 25 -68 14 -72 -16 -2 -12 -9 -22 -17 -22 -11
0 -13 19 -12 94 1 52 5 99 7 103 13 20 41 4 63 -35z m-154 -73 c15 -80 15 -98
4 -104 -17 -11 -22 -8 -59 48 l-32 47 6 -52 c6 -47 5 -53 -11 -53 -16 0 -21
14 -31 92 -18 132 -5 139 70 36 16 -22 17 -22 11 30 -5 43 -3 52 10 52 11 0
19 -24 32 -96z m-637 76 c30 0 51 -43 34 -70 -8 -13 -8 -26 0 -48 10 -25 9
-35 -5 -56 -18 -27 -53 -33 -105 -19 -22 5 -23 10 -18 52 4 25 12 70 17 99 10
48 13 53 32 48 12 -3 32 -6 45 -6z m432 -62 c0 -11 -5 -28 -11 -39 -8 -15 -6
-27 10 -53 26 -41 26 -46 2 -46 -10 0 -31 18 -47 43 l-29 42 -3 -47 c-3 -40
-6 -48 -23 -48 -18 0 -19 8 -19 99 l0 100 43 3 c46 4 77 -18 77 -54z m-203 35
c3 -7 -10 -13 -34 -15 -27 -2 -39 -8 -41 -20 -3 -15 4 -18 32 -18 29 0 36 -4
36 -20 0 -16 -7 -20 -35 -20 -31 0 -35 -3 -35 -25 0 -22 4 -25 40 -25 33 0 40
-3 40 -20 0 -18 -7 -20 -58 -20 l-58 0 3 88 c3 48 6 93 9 100 5 17 96 12 101
-5z"/>
<path d="M2055 5321 c-7 -12 25 -30 42 -24 7 2 9 11 6 19 -6 16 -39 19 -48 5z"/>
<path d="M2095 5220 c-7 -12 12 -40 27 -40 16 0 21 32 7 41 -18 12 -26 11 -34
-1z"/>
<path d="M1061 4766 c-10 -12 -7 -18 14 -32 21 -14 28 -15 35 -5 22 36 -23 69
-49 37z"/>
<path d="M1403 3523 c-27 -4 -32 -9 -35 -36 -3 -30 -6 -32 -48 -37 l-45 -5 -3
-48 c-2 -35 1 -49 12 -53 28 -11 17 -22 -19 -19 l-35 3 0 -62 0 -62 -92 -3
c-51 -1 -97 -6 -101 -10 -7 -7 -8 -37 -6 -136 1 -11 3 -14 6 -7 8 20 22 14 16
-8 -3 -12 1 -22 11 -26 9 -3 16 -16 16 -28 0 -15 3 -17 9 -7 6 9 11 10 15 2 4
-6 4 -15 1 -21 -3 -6 1 -7 9 -4 9 3 16 2 16 -4 0 -9 -41 -103 -59 -132 -5 -8
-15 -28 -22 -45 -8 -16 -20 -36 -26 -43 -7 -7 -13 -20 -13 -27 0 -21 -47 -105
-54 -97 -4 3 -4 -1 -1 -10 3 -8 -1 -22 -9 -30 -8 -8 -18 -32 -21 -52 -4 -20
-11 -36 -16 -36 -5 0 -9 -7 -9 -15 0 -8 -4 -15 -10 -15 -5 0 -10 -6 -10 -14 0
-8 -6 -21 -12 -28 -7 -7 -13 -17 -14 -23 0 -5 -4 -22 -8 -37 -8 -26 -10 -27
-89 -30 l-82 -3 -3 -63 c-2 -35 1 -69 6 -75 5 -7 12 -24 16 -38 3 -16 21 -37
43 -50 l38 -24 710 -3 c763 -3 795 -1 795 44 0 12 7 24 15 28 11 4 15 20 15
56 0 27 -4 50 -8 50 -5 0 -14 11 -20 25 -6 14 -15 24 -19 24 -5 -1 -26 6 -48
15 -22 10 -52 23 -67 29 -16 7 -28 20 -28 29 0 10 -4 18 -9 18 -4 0 -18 27
-30 60 -12 33 -28 66 -36 74 -8 8 -15 21 -15 28 0 8 -4 18 -9 23 -4 6 -16 33
-26 60 -10 28 -23 55 -30 60 -6 6 -25 44 -42 85 -17 41 -35 74 -41 73 -5 -1
-13 20 -16 48 -5 37 -3 55 9 72 8 12 18 21 20 20 14 -8 24 0 35 26 25 61 8
148 -30 158 -11 3 -20 13 -20 22 0 14 -2 14 -10 1 -5 -8 -10 -10 -10 -4 0 12
-3 13 -83 20 -42 4 -57 10 -53 19 2 7 -1 18 -7 24 -12 12 -36 93 -37 125 0 23
-87 106 -112 106 -11 0 -15 5 -12 14 5 13 -7 17 -91 29 -16 3 -44 3 -62 0z
m51 -29 c10 -4 16 -18 16 -40 0 -33 1 -34 40 -34 28 0 40 -4 40 -14 0 -10 -14
-16 -42 -18 l-43 -3 0 -45 0 -45 63 -3 c45 -2 62 -7 62 -17 0 -10 -16 -15 -57
-17 l-58 -3 0 -40 0 -40 163 -3 162 -2 0 -34 c0 -32 -2 -34 -46 -40 -26 -3
-60 -6 -76 -6 -25 0 -28 -3 -23 -20 8 -24 267 -569 328 -690 l43 -85 72 -3 72
-3 0 -34 c0 -19 -5 -37 -10 -40 -6 -4 -339 -3 -740 1 l-729 7 2 26 c2 25 5 26
74 29 40 2 76 8 81 15 9 11 261 529 346 710 20 43 34 83 30 88 -4 6 -38 9 -83
7 l-76 -3 0 35 0 35 160 5 160 5 3 37 3 37 -60 7 c-50 5 -61 10 -61 25 0 16 8
18 56 18 62 -1 76 9 72 51 -3 22 -8 25 -50 28 -27 2 -48 5 -48 7 0 24 17 35
56 35 43 0 44 1 44 33 0 46 14 56 54 41z"/>
<path d="M1286 3068 c-9 -12 -16 -25 -16 -29 0 -4 -42 -94 -94 -200 -208 -430
-266 -551 -266 -555 0 -2 234 -4 520 -4 286 0 520 2 520 5 0 7 -79 182 -191
420 -10 22 -54 117 -98 210 l-79 170 -140 3 c-136 2 -141 2 -156 -20z m296
-57 c12 -25 22 -48 23 -51 0 -3 9 -20 18 -37 10 -18 15 -33 13 -33 -3 0 6 -16
19 -36 14 -20 25 -43 25 -50 0 -7 20 -53 45 -102 25 -49 45 -95 45 -102 0 -7
6 -21 14 -29 7 -9 28 -50 45 -91 18 -41 41 -93 52 -114 16 -31 17 -41 7 -48
-16 -9 -343 -10 -679 -1 l-246 6 36 78 c20 42 40 75 45 72 5 -4 6 -1 2 5 -4 6
11 46 33 89 37 72 145 297 209 436 l26 57 46 -1 c25 0 39 -3 32 -6 -6 -2 -10
-9 -6 -14 3 -5 -6 -9 -21 -9 -33 0 -43 -26 -22 -62 9 -15 12 -28 8 -28 -15 0
-72 -64 -93 -104 -18 -35 -25 -69 -42 -210 -2 -15 -9 -32 -16 -36 -6 -4 -11
-10 -10 -14 4 -11 -31 -96 -39 -96 -4 0 -31 -22 -61 -50 -35 -32 -51 -53 -44
-60 5 -5 80 -10 167 -11 126 -1 159 -4 164 -15 7 -19 92 -19 107 1 9 11 43 15
161 16 83 1 156 4 163 6 22 9 12 28 -41 75 -78 69 -118 156 -127 273 -8 102
-33 161 -86 202 -23 17 -30 30 -27 43 3 11 8 20 12 20 4 0 7 9 8 19 1 14 -8
23 -32 31 -52 17 -51 36 2 31 42 -3 46 -6 65 -50z m-118 4 c3 -8 15 -15 27
-15 16 0 19 -4 14 -17 -19 -47 -17 -54 24 -90 59 -50 77 -93 83 -194 6 -101
44 -188 110 -255 22 -23 36 -44 31 -47 -4 -3 -71 -6 -148 -6 -111 -2 -141 -5
-148 -16 -10 -19 -43 -19 -51 0 -4 12 -31 15 -151 15 -80 0 -145 2 -145 5 0 3
19 24 42 47 60 63 95 145 107 255 12 108 34 157 92 206 42 35 43 35 26 61 -22
33 -22 36 8 36 14 0 28 7 31 15 4 8 14 15 24 15 10 0 20 -7 24 -15z"/>
<path d="M1390 2986 c0 -3 4 -16 10 -30 7 -20 16 -26 40 -26 27 0 30 3 30 30
0 28 -2 30 -40 30 -22 0 -40 -2 -40 -4z m60 -26 c0 -5 -7 -10 -15 -10 -8 0
-15 5 -15 10 0 6 7 10 15 10 8 0 15 -4 15 -10z"/>
<path d="M509 3961 c-12 -16 -20 -33 -19 -38 3 -8 116 -53 136 -53 24 0 26 51
3 84 -17 26 -30 33 -60 34 -32 2 -41 -2 -60 -27z"/>
<path d="M3894 2732 c-39 -3 -42 -5 -49 -38 -3 -20 -2 -41 3 -47 13 -17 22
-87 11 -87 -5 0 -9 -5 -9 -11 0 -6 9 -9 19 -6 14 3 18 1 14 -9 -3 -8 -10 -14
-17 -14 -6 0 -4 -4 4 -10 26 -17 6 -19 -62 -6 -40 8 -65 9 -61 3 4 -6 -8 -7
-33 -2 -69 15 -122 8 -130 -17 -3 -10 -10 -16 -15 -13 -5 4 -10 0 -11 -7 0 -7
-2 -17 -2 -23 -1 -5 -5 -15 -8 -21 -12 -19 -12 -124 0 -136 7 -7 12 -28 12
-48 0 -20 5 -41 12 -48 9 -9 9 -15 0 -24 -7 -7 -12 -17 -12 -22 0 -6 5 -4 10
4 8 12 10 12 11 -5 3 -56 7 -75 18 -88 6 -8 9 -22 5 -31 -3 -9 -2 -16 4 -16 6
0 8 -8 5 -19 -2 -10 3 -25 11 -34 9 -8 16 -22 16 -31 0 -8 5 -18 11 -22 6 -3
8 -15 6 -26 -4 -14 -2 -18 9 -14 11 4 12 1 5 -12 -11 -21 0 -51 28 -76 11 -11
21 -27 21 -37 0 -10 5 -21 11 -25 6 -3 20 -27 31 -51 12 -26 28 -48 40 -51 15
-4 16 -7 6 -13 -10 -6 -10 -11 0 -21 6 -6 12 -20 12 -30 0 -10 7 -18 15 -18
16 0 65 -46 65 -60 0 -4 10 -10 22 -13 12 -4 19 -9 16 -13 -4 -3 16 -25 45
-47 29 -22 54 -43 57 -46 12 -14 88 -49 118 -55 39 -7 140 36 184 78 15 14 30
26 34 26 4 0 34 27 66 60 33 33 63 60 69 60 5 0 9 7 9 15 0 8 5 15 10 15 6 0
15 11 20 25 5 14 13 25 18 25 5 0 14 18 21 40 7 22 29 69 49 103 37 62 44 80
83 192 12 33 24 62 29 65 4 3 10 28 13 55 11 91 28 200 37 228 14 44 -14 136
-52 170 -17 15 -38 27 -47 27 -9 0 -29 7 -45 15 -16 9 -35 14 -43 11 -7 -3
-15 -1 -19 5 -4 7 -10 7 -18 0 -8 -7 -25 -7 -52 1 -49 15 -52 17 -34 28 8 6
11 10 5 10 -6 0 -9 21 -7 50 4 47 2 53 -34 85 -20 19 -41 32 -47 28 -5 -3 -13
0 -18 8 -6 10 -55 13 -231 14 -123 0 -242 -1 -264 -3z m424 -38 c31 -6 32 -8
26 -43 -3 -20 -15 -56 -25 -79 -16 -36 -18 -50 -9 -76 12 -38 50 -62 77 -51
30 13 46 17 93 20 25 1 45 3 45 5 0 1 20 3 45 5 39 3 48 0 64 -22 22 -30 24
-92 7 -183 -5 -30 -14 -81 -20 -113 -5 -32 -20 -79 -32 -105 -13 -26 -24 -51
-25 -57 -6 -45 -34 -113 -61 -144 -17 -21 -35 -54 -38 -75 -4 -21 -13 -40 -20
-43 -7 -2 -16 -15 -19 -28 -4 -14 -34 -52 -68 -85 -62 -62 -121 -96 -141 -83
-7 4 -43 8 -81 9 -39 2 -72 8 -76 14 -6 9 -13 9 -28 1 -34 -18 -89 -10 -112
16 -11 12 -24 23 -30 23 -5 0 -10 4 -10 10 0 5 -18 29 -40 51 -22 23 -40 46
-40 51 0 5 -6 16 -14 23 -7 8 -17 31 -21 51 -3 21 -19 50 -36 66 -25 26 -59
108 -59 145 0 7 -11 31 -24 51 -24 38 -38 98 -56 235 -5 37 -10 77 -12 89 -3
19 2 21 65 21 37 1 61 4 55 8 -18 11 4 32 28 27 24 -4 30 -28 8 -28 -16 0 -15
-2 4 -16 12 -8 22 -19 22 -23 0 -17 -33 -21 -49 -7 -12 11 -21 12 -34 4 -11
-5 -32 -8 -48 -6 -16 3 -29 1 -29 -3 0 -14 37 -20 63 -10 31 12 99 -15 76 -30
-8 -4 -25 -6 -39 -3 -18 4 -21 3 -10 -4 22 -14 163 -9 168 6 2 6 12 12 22 12
10 0 22 5 25 10 4 7 -2 9 -19 4 -16 -4 -32 -1 -41 6 -12 10 -21 10 -42 1 -29
-13 -36 -11 -28 12 8 20 50 30 75 17 25 -13 33 -13 56 5 17 13 16 14 -17 8
-20 -3 -39 -1 -43 5 -4 7 -17 7 -41 -1 -19 -6 -37 -8 -40 -5 -10 10 6 36 26
41 10 3 19 12 19 21 0 18 21 21 36 6 19 -19 62 9 75 47 9 28 8 42 -4 71 -28
70 -39 114 -31 122 5 5 20 10 34 12 42 5 363 -1 398 -8z m202 -188 c0 -9 -30
-14 -35 -6 -4 6 3 10 14 10 12 0 21 -2 21 -4z m-810 -36 c12 -6 28 -7 44 -1
18 7 28 6 36 -4 23 -28 -21 -50 -47 -24 -8 8 -20 9 -42 1 -16 -6 -40 -8 -53
-5 -21 4 -22 3 -6 -10 21 -17 14 -27 -19 -27 -30 0 -40 24 -23 56 11 19 21 24
52 24 22 0 48 -5 58 -10z m130 -155 c0 -16 -35 -21 -44 -6 -8 12 4 21 26 21
10 0 18 -7 18 -15z m-90 -596 c0 -6 -4 -7 -10 -4 -5 3 -10 11 -10 16 0 6 5 7
10 4 6 -3 10 -11 10 -16z m338 -183 c43 -15 24 -30 -33 -27 -18 1 -18 0 3 -11
15 -7 29 -8 44 -1 22 10 78 -3 78 -18 0 -4 -12 -17 -26 -28 -27 -21 -46 -19
-79 9 -11 10 -44 31 -72 47 -29 16 -51 32 -49 34 7 7 110 4 134 -5z m110 -14
c5 -17 -27 -27 -41 -13 -9 9 -8 14 3 21 18 11 32 8 38 -8z"/>
<path d="M3970 2651 c0 -5 6 -12 13 -14 20 -9 -15 -28 -38 -21 -16 5 -18 4 -7
-7 10 -11 19 -11 44 -1 21 8 36 8 42 2 6 -6 20 -10 32 -10 30 0 52 -27 29 -36
-9 -4 -26 -2 -38 3 -13 6 -35 6 -52 2 -16 -5 -39 -6 -50 -3 -19 5 -19 4 -2 -6
11 -7 33 -9 51 -6 37 7 99 -11 90 -26 -4 -5 -19 -8 -35 -6 -16 3 -29 1 -29 -3
0 -14 39 -20 59 -10 14 8 27 8 46 -1 21 -10 32 -8 70 11 24 12 47 26 50 32 8
12 -2 11 -27 -2 -16 -8 -24 -8 -35 4 -12 12 -22 13 -45 5 -42 -15 -46 -3 -7
21 22 13 37 17 43 11 15 -15 62 -12 76 5 15 18 7 19 -20 3 -16 -10 -24 -10
-41 0 -17 11 -27 11 -51 1 -35 -14 -59 0 -40 24 18 22 -28 43 -65 29 -19 -6
-36 -6 -46 0 -11 6 -17 5 -17 -1z m102 -12 c17 -9 18 -13 7 -20 -18 -11 -30
-11 -49 1 -13 9 -13 11 0 20 19 12 17 12 42 -1z m105 -106 c5 -15 -28 -26 -41
-13 -8 8 -7 14 4 20 17 11 32 8 37 -7z"/>
<path d="M4125 2650 c-3 -5 -2 -10 4 -10 5 0 13 5 16 10 3 6 2 10 -4 10 -5 0
-13 -4 -16 -10z"/>
<path d="M4305 2380 c-11 -4 -31 -6 -45 -3 -24 5 -24 5 -5 -10 19 -15 19 -16
2 -22 -9 -4 -26 -5 -37 -2 -11 3 -20 1 -20 -4 0 -6 21 -9 48 -9 58 2 114 -11
120 -28 5 -15 -40 -16 -55 -1 -8 8 -17 8 -33 -1 -12 -7 -33 -10 -46 -7 -13 2
-24 1 -24 -3 0 -12 41 -19 64 -11 13 5 34 2 56 -6 30 -13 32 -16 17 -25 -10
-5 -27 -6 -38 -3 -13 4 -19 3 -16 -2 4 -5 41 -10 83 -10 59 -1 84 4 110 19 42
25 43 29 4 22 -17 -4 -36 -1 -44 5 -11 10 -20 10 -36 1 -25 -13 -33 -9 -25 13
8 20 50 30 75 17 25 -13 33 -13 56 5 18 14 17 14 -13 9 -18 -4 -39 -2 -46 4
-8 7 -18 7 -27 2 -8 -6 -25 -10 -37 -10 -31 0 -30 28 2 40 14 5 25 14 25 20 0
6 -8 6 -24 -1 -17 -8 -29 -8 -44 0 -23 12 -20 12 -47 1z m46 -25 c0 -5 -12
-11 -26 -13 -18 -2 -25 1 -25 13 0 12 7 15 25 13 14 -2 26 -7 26 -13z m99
-100 c0 -16 -35 -21 -44 -6 -8 12 4 21 26 21 10 0 18 -7 18 -15z"/>
<path d="M3876 2108 c-10 -6 -29 -8 -42 -5 -25 4 -33 -7 -11 -16 21 -9 -15
-28 -41 -22 -14 3 -21 2 -18 -4 3 -5 32 -9 63 -8 68 1 103 -9 103 -29 0 -17
-41 -19 -57 -3 -8 8 -17 8 -33 -1 -12 -6 -33 -9 -47 -5 -17 4 -23 2 -18 -6 5
-7 23 -9 47 -6 43 6 98 -8 98 -25 0 -6 -13 -8 -30 -6 -16 3 -30 0 -30 -5 0 -5
19 -7 44 -5 27 3 52 0 67 -9 l24 -14 -27 4 c-16 2 -28 0 -28 -4 0 -5 5 -9 10
-9 6 0 10 -4 10 -10 0 -5 -17 -10 -37 -10 -32 -1 -35 -2 -20 -11 12 -7 27 -7
46 -1 17 6 34 6 42 1 8 -5 24 -9 36 -9 26 0 39 -18 24 -33 -8 -8 -18 -7 -36 3
-19 10 -31 11 -49 2 -13 -6 -35 -9 -47 -6 l-24 5 23 -12 c15 -9 29 -9 45 -2
16 7 31 6 55 -4 41 -17 42 -37 2 -31 -16 3 -30 0 -30 -5 0 -5 19 -7 43 -5 23
3 53 1 66 -4 17 -6 35 -2 68 14 58 29 62 37 13 31 -26 -4 -40 -2 -40 5 0 8 -8
9 -26 2 -35 -14 -44 -13 -38 4 8 21 55 39 68 26 16 -16 45 -12 83 11 29 18 38
20 64 9 25 -11 32 -10 48 4 9 9 22 16 27 16 6 0 19 7 30 15 18 14 17 14 -13 9
-20 -4 -39 -2 -47 5 -11 9 -20 9 -35 2 -28 -15 -41 -14 -34 5 9 23 50 36 75
23 23 -13 68 -4 68 13 0 9 -3 9 -12 0 -16 -16 -43 -15 -57 2 -11 13 -17 13
-46 0 -19 -8 -36 -10 -39 -5 -9 14 4 41 19 41 8 0 17 5 20 10 4 7 -2 9 -19 4
-15 -3 -32 -1 -40 5 -10 8 -21 8 -41 1 -15 -6 -37 -8 -49 -4 -17 5 -19 4 -8
-7 20 -22 14 -31 -20 -28 -18 2 -43 -3 -55 -9 -22 -12 -53 -7 -53 9 0 6 -8 5
-19 -1 -27 -14 -51 -13 -45 3 6 17 62 38 70 26 7 -12 61 -11 69 1 4 7 -2 9
-19 4 -15 -3 -32 -1 -39 5 -9 7 -24 8 -47 1 -52 -15 -72 10 -25 32 14 6 25 15
25 20 0 5 -9 4 -21 -2 -16 -9 -26 -8 -43 3 -16 11 -27 12 -40 5z m33 -17 c17
-11 5 -31 -19 -31 -24 0 -36 20 -19 31 8 5 16 9 19 9 3 0 11 -4 19 -9z m329
-68 c2 -9 -7 -13 -27 -13 -30 0 -39 9 -24 24 11 10 46 3 51 -11z m-10 -35 c17
-5 32 -13 32 -17 0 -17 -33 -21 -54 -7 -19 12 -26 12 -50 -1 -20 -11 -31 -12
-39 -4 -15 15 -27 14 -27 -4 0 -18 -31 -20 -48 -3 -17 17 -15 28 7 28 11 0 23
5 26 10 4 6 15 8 24 5 10 -3 29 -1 42 4 13 5 31 7 39 4 8 -3 30 -9 48 -15z
m-208 -9 c0 -5 -13 -9 -30 -9 -32 0 -41 16 -12 22 21 5 42 -1 42 -13z m178
-28 c9 -5 26 -12 37 -16 19 -6 19 -7 2 -17 -10 -5 -27 -8 -38 -5 -10 3 -19 1
-19 -4 0 -5 5 -9 12 -9 9 0 9 -3 1 -11 -8 -8 -17 -8 -33 1 -14 8 -30 8 -48 2
-31 -10 -52 -6 -52 11 0 12 18 21 85 44 17 6 31 11 33 12 1 1 10 -3 20 -8z
m-158 -21 c13 -9 13 -11 0 -20 -8 -5 -17 -10 -20 -10 -3 0 -12 5 -20 10 -13 9
-13 11 0 20 8 5 17 10 20 10 3 0 12 -5 20 -10z m298 -7 c2 -8 -6 -13 -22 -13
-28 0 -43 15 -24 23 20 8 41 3 46 -10z m-198 -93 c13 -9 13 -11 0 -20 -8 -5
-17 -10 -20 -10 -3 0 -12 5 -20 10 -13 9 -13 11 0 20 8 5 17 10 20 10 3 0 12
-5 20 -10z"/>
<path d="M4030 1640 c-26 -4 -31 -7 -21 -14 12 -8 11 -11 -5 -17 -10 -4 -30
-5 -44 -3 l-25 4 23 -12 c18 -9 31 -9 53 -1 17 7 31 7 35 2 3 -5 14 -9 25 -9
10 0 27 -8 37 -18 15 -15 21 -15 41 -5 15 7 44 9 71 6 30 -3 50 -1 54 6 5 7
-2 9 -23 5 -18 -4 -37 -2 -45 5 -10 8 -21 9 -42 1 -15 -6 -33 -9 -41 -6 -15 6
-6 36 12 36 7 0 17 6 23 13 8 9 -1 12 -41 12 -29 0 -68 -2 -87 -5z m69 -14
c10 -11 8 -16 -9 -21 -28 -9 -52 12 -30 25 20 13 26 12 39 -4z"/>
<path d="M3565 2070 c3 -5 8 -10 11 -10 2 0 4 5 4 10 0 6 -5 10 -11 10 -5 0
-7 -4 -4 -10z"/>
<path d="M390 2208 c0 -13 4 -29 9 -37 12 -19 45 -6 37 15 -3 9 -6 22 -6 30 0
8 -9 14 -20 14 -14 0 -20 -7 -20 -22z"/>
<path d="M2430 1560 c0 -68 1 -70 25 -70 21 0 25 5 25 30 0 17 5 30 10 30 10
0 14 -21 11 -47 -1 -8 9 -13 24 -13 21 0 25 5 25 29 0 16 -5 31 -11 33 -8 3
-8 10 2 27 12 20 12 24 -5 37 -11 8 -39 14 -63 14 l-43 0 0 -70z m70 30 c0
-11 -4 -20 -10 -20 -5 0 -10 9 -10 20 0 11 5 20 10 20 6 0 10 -9 10 -20z"/>
<path d="M2653 1620 c-20 -8 -23 -17 -23 -59 0 -39 4 -53 19 -61 57 -30 117 8
107 68 -3 19 -9 39 -13 43 -14 14 -67 19 -90 9z m47 -60 c0 -27 -4 -50 -10
-50 -5 0 -10 23 -10 50 0 28 5 50 10 50 6 0 10 -22 10 -50z"/>
<path d="M2842 1568 c3 -58 5 -63 31 -72 17 -6 37 -6 55 0 25 9 27 14 30 72 3
61 2 63 -20 60 -21 -3 -23 -9 -26 -60 -2 -32 -7 -58 -12 -58 -5 0 -10 26 -12
58 -3 51 -5 57 -26 60 -22 3 -23 1 -20 -60z"/>
<path d="M3030 1616 c0 -7 9 -16 21 -19 19 -5 21 -12 18 -56 -4 -47 -2 -51 19
-51 20 0 22 5 22 51 0 42 3 52 20 56 11 3 20 12 20 19 0 10 -16 14 -60 14 -44
0 -60 -4 -60 -14z"/>
<path d="M3230 1560 l0 -70 45 0 c33 0 45 4 45 15 0 9 -9 15 -25 15 -30 0 -33
20 -5 27 26 7 26 19 -1 26 -25 7 -16 27 11 27 13 0 17 5 14 15 -4 10 -20 15
-45 15 l-39 0 0 -70z"/>
<path d="M743 1433 c-7 -2 -13 -10 -13 -18 0 -19 27 -38 45 -31 12 4 13 10 3
31 -12 26 -14 27 -35 18z"/>
<path d="M2630 1343 c-14 -9 -28 -22 -32 -27 -4 -6 -8 -72 -8 -147 0 -169 6
-180 96 -187 50 -3 63 -1 84 18 22 19 25 31 28 100 4 74 3 80 -23 105 -26 27
-43 29 -88 10 -16 -7 -18 -3 -15 41 2 37 7 50 21 52 12 3 17 -3 17 -22 0 -24
3 -26 45 -26 39 0 45 3 45 21 0 11 -13 34 -29 50 -24 23 -38 29 -73 29 -24 0
-54 -7 -68 -17z m80 -239 c0 -66 -2 -75 -17 -72 -14 3 -19 15 -21 62 -4 68 1
86 23 86 12 0 15 -14 15 -76z"/>
<path d="M2970 1347 c-44 -22 -51 -51 -48 -190 3 -127 3 -129 31 -153 40 -34
118 -34 152 1 27 26 30 44 26 167 -1 37 -52 65 -88 49 -34 -15 -33 -16 -33 40
0 43 3 50 18 47 9 -2 18 -13 20 -26 3 -19 9 -22 47 -22 l44 0 -10 32 c-5 18
-9 34 -9 35 0 1 -13 9 -30 18 -35 18 -86 19 -120 2z m75 -242 c0 -58 -3 -70
-17 -73 -16 -3 -18 6 -18 73 0 67 2 76 18 73 14 -3 17 -15 17 -73z"/>
<path d="M4640 1075 c-28 -34 59 -103 97 -79 28 17 26 33 -7 64 -35 33 -70 39
-90 15z"/>
<path d="M1062 971 c-42 -37 -42 -38 -23 -55 22 -20 41 -14 81 29 19 20 22 30
14 42 -17 27 -26 24 -72 -16z"/>
<path d="M4205 730 c-3 -5 3 -27 15 -49 29 -58 90 -70 90 -18 0 45 -85 100
-105 67z"/>
<path d="M1635 640 c-3 -5 1 -10 9 -10 9 0 16 5 16 10 0 6 -4 10 -9 10 -6 0
-13 -4 -16 -10z"/>
<path d="M1570 566 c-10 -13 -10 -20 -2 -28 16 -16 32 2 23 25 -6 17 -8 18
-21 3z"/>
<path d="M3736 501 c-3 -4 4 -31 16 -60 23 -54 51 -68 63 -31 14 43 -58 126
-79 91z"/>
<path d="M2083 411 c-9 -14 -9 -22 -2 -27 15 -9 21 1 17 26 -3 21 -3 21 -15 1z"/>
<path d="M3553 453 c-13 -5 -18 -35 -7 -45 11 -12 44 5 44 22 0 19 -17 30 -37
23z"/>
<path d="M3380 353 c0 -13 5 -23 10 -23 13 0 13 11 0 30 -8 12 -10 11 -10 -7z"/>
<path d="M2577 364 c-16 -16 -6 -34 19 -34 19 0 25 5 22 17 -3 19 -29 29 -41
17z"/>
<path d="M2567 283 c-4 -3 -7 -15 -7 -25 0 -23 48 -25 57 -2 9 23 -32 45 -50
27z"/>
<path d="M2960 341 c0 -26 15 -34 39 -21 26 14 16 40 -15 40 -17 0 -24 -6 -24
-19z"/>
</g>
</svg>
